<svg width="34" height="72" viewBox="0 0 34 72" fill="none" xmlns="http://www.w3.org/2000/svg">
<path d="M12.044 1.93725C12.8813 17.3582 11.9827 32.6156 11.25 47.9924C11.2375 48.2549 10.5648 56.0249 11.0368 53.1676C12.3998 44.9163 12.3613 36.2564 12.4097 27.9227C12.4275 24.8572 11.0141 14.111 13.5489 11.6601C14.2658 10.967 14.2233 13.5495 14.3753 14.535C14.6723 16.4597 14.8842 18.3966 15.1386 20.3274C15.9996 26.8613 17.2613 33.4535 17.0681 40.0647C16.9721 43.3495 16.728 46.8616 17.0526 50.137C17.1675 51.2968 17.978 53.5565 16.9627 54.55C16.7253 54.7823 15.6758 52.7963 15.6435 52.747C14.6749 51.2678 13.4815 49.955 12.4734 48.5026C10.1174 45.1079 7.57931 41.7835 5.10924 38.4702C4.44066 37.5734 1.4761 32.6859 1.98629 33.7346C6.33882 42.6818 8.89828 52.2023 12.143 61.563C12.6448 63.0106 15.6427 72.7733 17.3187 69.4221C20.1387 63.7833 22.2459 57.5737 24.337 51.6388C25.9135 47.1645 27.739 39.1163 32.0042 36.2316" stroke="#FF6B00" stroke-width="3" stroke-linecap="round"/>
</svg>
