<svg width="29" height="17" viewBox="0 0 29 17" fill="none" xmlns="http://www.w3.org/2000/svg">
<path d="M22.7793 9.38886H7.0293C6.5393 9.38886 6.1543 8.99775 6.1543 8.49997C6.1543 8.0022 6.5393 7.61108 7.0293 7.61108H22.7793C23.2693 7.61108 23.6543 8.0022 23.6543 8.49997C23.6543 8.99775 23.2693 9.38886 22.7793 9.38886Z" fill="white"/>
<path d="M18.4043 15.611C18.2895 15.6125 18.1758 15.5895 18.0703 15.5436C17.9648 15.4976 17.8699 15.4298 17.7918 15.3444C17.4418 14.9888 17.4418 14.4377 17.7918 14.0822L23.3043 8.48216L17.7918 2.88216C17.4418 2.5266 17.4418 1.97549 17.7918 1.61994C18.1418 1.26438 18.6843 1.26438 19.0343 1.61994L25.1593 7.84216C25.5093 8.19772 25.5093 8.74883 25.1593 9.10438L19.0343 15.3266C18.8593 15.5044 18.6318 15.5933 18.4218 15.5933L18.4043 15.611Z" fill="white"/>
</svg>
