<svg width="1062" height="192" viewBox="0 0 1062 192" fill="none" xmlns="http://www.w3.org/2000/svg">
<g clip-path="url(#clip0_89_2)">
<path d="M741.847 37.4742C622.805 39.0922 552.461 65.3085 532.17 78.2143L455.138 23.8939L541.188 -52.6745L741.847 -78.9678L956.41 -85.9023L1062.38 -0.376869V160.85L1001.88 114.043C964.802 87.8456 860.89 35.8561 741.847 37.4742Z" fill="#E0C7F5"/>
<path d="M160.045 397.71C475.911 426.377 666.635 418.189 722.515 410.511L917.973 484.14L677.479 538.423L141.251 513.544L-428.713 465.871L-917.528 395.842C-917.528 395.842 -967.615 353.822 -817.532 305.939C-697.352 270.936 -669.821 193.456 -669.821 193.456L-516.984 255.406C-422.918 290.896 -155.82 369.042 160.045 397.71Z" fill="#D6EFEF"/>
<path d="M494.846 -237.402C536.019 -217.051 569.09 -190.189 591.131 -159.194C613.171 -128.199 623.5 -94.0284 621.203 -59.7091C618.906 -25.3898 604.054 8.01911 577.962 37.5582C551.871 67.0973 515.345 91.8549 471.62 109.638C427.895 127.421 378.32 137.68 327.288 139.508C276.256 141.335 225.341 134.674 179.053 120.114C132.766 105.554 92.5338 83.545 61.9217 56.0363C31.3095 28.5276 11.2618 -3.63157 3.55447 -37.5927L273.845 -65.3126C274.771 -61.2318 277.18 -57.3676 280.859 -54.0622C284.537 -50.7567 289.371 -48.1121 294.933 -46.3626C300.495 -44.6131 306.613 -43.8127 312.745 -44.0323C318.877 -44.2518 324.834 -45.4846 330.088 -47.6214C335.342 -49.7582 339.731 -52.7331 342.866 -56.2825C346.001 -59.8319 347.786 -63.8463 348.062 -67.9701C348.338 -72.0938 347.096 -76.1998 344.448 -79.9241C341.8 -83.6484 337.826 -86.8762 332.878 -89.3215L494.846 -237.402Z" fill="#E0C7F5"/>
</g>
<defs>
<clipPath id="clip0_89_2">
<rect width="1062" height="192" fill="white"/>
</clipPath>
</defs>
</svg>
