<svg width="429" height="76" viewBox="0 0 429 76" fill="none" xmlns="http://www.w3.org/2000/svg">
<g clip-path="url(#clip0_89_6)">
<path d="M233.036 4.50016C147.274 5.63459 96.5964 24.015 81.9778 33.0634L26.4814 -5.02107L88.475 -58.7037L233.036 -77.1382L387.614 -82L463.955 -22.0375V91L420.371 58.1828C393.66 39.8159 318.799 3.36574 233.036 4.50016Z" fill="#E0C7F5"/>
<path d="M55.9162 -188.529C85.5987 -174.257 109.441 -155.419 125.33 -133.683C141.22 -111.946 148.666 -87.9832 147.01 -63.9155C145.354 -39.8478 134.647 -16.4186 115.837 4.29675C97.0266 25.0121 70.6941 42.3743 39.1717 54.8452C7.64935 67.3162 -28.0898 74.5111 -64.8802 75.7926C-101.67 77.0741 -138.376 72.4026 -171.746 62.192C-205.116 51.9813 -234.12 36.5467 -256.189 17.2552C-278.258 -2.03627 -292.711 -24.5891 -298.268 -48.4056L-103.409 -67.8451C-102.741 -64.9834 -101.004 -62.2734 -98.3524 -59.9554C-95.7006 -57.6373 -92.2155 -55.7827 -88.2058 -54.5558C-84.1961 -53.3289 -79.7856 -52.7676 -75.3649 -52.9216C-70.9442 -53.0755 -66.6497 -53.9401 -62.862 -55.4386C-59.0743 -56.9371 -55.9102 -59.0233 -53.65 -61.5125C-51.3898 -64.0016 -50.1032 -66.8168 -49.9042 -69.7088C-49.7052 -72.6008 -50.6 -75.4802 -52.5093 -78.092C-54.4186 -80.7038 -57.2834 -82.9674 -60.85 -84.6823L55.9162 -188.529Z" fill="#E0C7F5"/>
</g>
<defs>
<clipPath id="clip0_89_6">
<rect width="429" height="76" fill="white"/>
</clipPath>
</defs>
</svg>
