<svg width="18" height="18" viewBox="0 0 18 18" fill="none" xmlns="http://www.w3.org/2000/svg">
<path d="M7.06271 2L6.45929 2.63445L7.35714 3.57936L7.95971 2.94491L7.06271 2ZM14.9377 2L14.0399 2.94491L14.6429 3.57936L15.5403 2.6349L14.9377 2ZM11 2.28158C10.8586 2.28338 10.7154 2.29196 10.5714 2.31046C10.5671 2.31046 10.5629 2.30956 10.5586 2.31046C8.82029 2.52029 7.43686 3.99902 7.19643 5.82116C7.00443 7.28771 7.57871 8.61753 8.53571 9.474C8.92718 9.82576 9.19196 10.3085 9.28571 10.8413V13.5488H10.2629C10.412 13.8181 10.6841 14 11 14C11.3159 14 11.588 13.8181 11.7371 13.5488H12.7143V11.7438H12.7546V11.2077C12.7546 10.5462 13.0811 9.87922 13.6117 9.36073C14.3214 8.61257 14.8571 7.54988 14.8571 6.32926C14.8571 4.1001 13.1146 2.26082 11 2.28158ZM11 3.18407C12.6564 3.1597 14 4.58745 14 6.32926C14 7.27417 13.5843 8.10627 13.0087 8.71184L13.0224 8.72628C12.4504 9.28163 12.0806 10.0298 11.9767 10.8417H10.1021C10.0079 10.0683 9.69286 9.31967 9.09757 8.78269C8.34029 8.10582 7.889 7.086 8.03986 5.93442C8.22714 4.51299 9.32257 3.36998 10.6649 3.2134C10.7757 3.19713 10.8873 3.18749 10.9991 3.18452L11 3.18407ZM5 6.32926V7.23175H6.28571V6.32926H5ZM15.7143 6.32926V7.23175H17V6.32926H15.7143ZM7.35714 9.98165L6.45971 10.9261L7.06271 11.561L7.95929 10.6161L7.35714 9.98165ZM14.6429 9.98165L14.0403 10.6161L14.9373 11.561L15.5403 10.9261L14.6429 9.98165ZM10.1429 11.7442H11.8571V12.6467H10.1429V11.7442Z" fill="black"/>
</svg>
