<svg width="16" height="98" viewBox="0 0 16 98" fill="none" xmlns="http://www.w3.org/2000/svg">
<path d="M4.26309 94.1814C3.36422 73.1951 3.34066 51.9765 3.78109 30.967C3.98034 21.4623 4.60797 12.0097 5.3235 2.55508C5.53186 -0.197974 5.88196 8.04226 6.03044 10.8023C7.43943 36.993 6.35013 62.7176 2.4636 88.4818C0.215087 103.387 6.74917 58.6115 9.14741 43.7481C10.3989 35.9917 11.5784 28.2273 12.6821 20.4313C13.2206 16.6281 13.4604 13.4962 13.7747 19.9995C14.697 39.0866 12.6476 57.0758 10.1757 75.7871C9.32763 82.2067 9.49498 89.8265 8.1834 95.995C8.13997 96.1992 8.15456 90.1154 8.31194 88.7409" stroke="#FF6B00" stroke-width="3" stroke-linecap="round"/>
</svg>
