<svg width="20" height="45" viewBox="0 0 20 45" fill="none" xmlns="http://www.w3.org/2000/svg">
<g clip-path="url(#clip0_124_239)">
<path d="M6.63333 36.6759C6.63333 36.1055 6.65631 35.5389 6.70227 34.9723C6.76738 34.1496 6.76738 33.3192 6.77121 32.4887C6.77504 31.7902 6.7444 31.0917 6.73291 30.3932C6.72525 29.877 6.7444 29.357 6.64099 28.8448C6.60652 28.6701 6.62184 28.4839 6.62567 28.3015C6.63333 27.7815 6.5912 27.2692 6.52992 26.7531C6.4763 26.2913 6.45715 25.8256 6.44566 25.3599C6.43417 24.5838 6.41885 23.8077 6.44566 23.0316C6.4763 22.1545 6.54907 21.2775 6.76738 20.4238C6.90526 19.8844 7.17335 19.4032 7.59465 19.0539C7.92402 18.7784 8.2917 18.5222 8.70916 18.3864C9.07301 18.27 9.43685 18.1419 9.80836 18.0566C10.379 17.9246 10.9573 17.8276 11.5318 17.7034C12.2097 17.556 12.8647 17.3192 13.4698 16.9972C14.1592 16.6324 14.6877 16.093 14.8984 15.2664C15.0324 14.7425 15.1971 14.2225 15.2584 13.6831C15.289 13.3998 15.3273 13.1126 15.3043 12.8332C15.2469 12.1386 15.155 11.4439 15.0745 10.7493C14.9903 10.0197 14.772 9.33675 14.4503 8.68092C14.2473 8.26569 14.0596 7.83882 13.8451 7.42747C13.3243 6.43014 12.6502 5.56088 11.685 4.96326C11.1144 4.61012 10.4939 4.354 9.82368 4.28415C9.44451 4.24534 9.04237 4.30743 8.71299 4.50146C7.93168 4.95938 7.24229 5.53372 6.79036 6.35253C6.74057 6.44179 6.68695 6.53104 6.65248 6.62806C6.28097 7.62538 5.99373 8.64211 5.99373 9.72093C5.99373 9.90333 5.99373 10.0818 5.98607 10.2642C5.97075 10.5708 5.88266 10.695 5.61073 10.7765C5.43839 10.8269 5.26604 10.8735 5.08986 10.8968C4.7107 10.955 4.33153 10.9977 3.94854 11.0481C3.66895 11.0869 3.38936 11.0714 3.10978 11.0365C2.68082 10.9821 2.24421 10.9627 1.81525 10.8929C1.19863 10.792 0.635629 10.5592 0.271783 10.0003C0.0534763 9.66661 -0.0614222 9.29794 0.0228367 8.89436C0.0956057 8.53734 0.0994357 8.17256 0.156885 7.81942C0.294763 6.95015 0.451791 6.08477 0.769677 5.25819C0.815636 5.14177 0.876915 5.02147 0.957344 4.92445C1.32502 4.45878 1.70035 4.00474 2.07186 3.54294C2.36294 3.17816 2.69997 2.86771 3.07148 2.5883C3.66895 2.13815 4.30855 1.77337 5.00943 1.50948C5.39243 1.3659 5.7601 1.18351 6.13927 1.03604C6.44949 0.915743 6.78653 0.857533 7.0776 0.710069C7.47592 0.508275 7.89721 0.41902 8.32234 0.341407C9.00024 0.213346 9.68197 0.0697616 10.3675 0.0387164C11.0991 0.00767124 11.8421 -0.0660611 12.5736 0.131852C12.9719 0.24051 13.3664 0.35693 13.7149 0.570365C14.2626 0.904101 14.8179 1.21843 15.3311 1.61038C16.2963 2.34382 17.2002 3.19756 17.8666 4.16773C18.2151 4.67609 18.5368 5.20774 18.759 5.79372C19.1113 6.73672 19.4369 7.69524 19.6552 8.68092C19.9999 10.2332 20.0918 11.8048 19.9003 13.3881C19.862 13.6947 19.8313 14.0052 19.7892 14.3117C19.6666 15.278 19.3181 16.1628 18.8394 16.9972C18.6594 17.3115 18.4717 17.6181 18.2955 17.9324C17.7632 18.8715 17.0393 19.6205 16.1622 20.2336C15.9095 20.4082 15.6605 20.5906 15.4192 20.7847C15.0975 21.0447 14.7528 21.2775 14.3775 21.4289C13.3702 21.8402 12.8302 22.6551 12.4472 23.6214C12.3897 23.765 12.3361 23.9125 12.2978 24.0599C12.0106 25.1853 11.6199 26.2835 11.5395 27.4594C11.5165 27.8203 11.4437 28.1773 11.3825 28.5343C11.2599 29.2484 11.2254 29.9702 11.1718 30.6958C11.1144 31.4914 11.1412 32.3024 10.9573 33.0902C10.9305 33.2144 10.9344 33.3463 10.9267 33.4783C10.8463 35.0305 10.7046 36.575 10.7352 38.1312C10.7352 38.2359 10.7275 38.3368 10.7161 38.4416C10.6969 38.5813 10.6203 38.6783 10.4824 38.7133C10.1837 38.7909 9.88496 38.8607 9.57473 38.8258C9.39855 38.8025 9.21855 38.7831 9.04237 38.7715C8.60958 38.7404 8.1768 38.7094 7.74785 38.818C7.55252 38.8646 7.34187 38.8568 7.13888 38.8568C6.97037 38.8568 6.85547 38.7521 6.77887 38.6085C6.67163 38.395 6.63716 38.1661 6.63333 37.9294C6.63333 37.5141 6.63333 37.1028 6.63333 36.6876V36.6759ZM7.33421 32.6362C7.33421 32.6362 7.36102 32.6362 7.37634 32.6362C7.36102 32.9195 7.35719 33.2066 7.33421 33.4899C7.22697 34.7822 7.22314 36.0744 7.23463 37.3706C7.23463 37.6034 7.26144 37.8362 7.28442 38.0652C7.29591 38.1855 7.42996 38.2942 7.55635 38.298C7.68274 38.298 7.81678 38.3136 7.93551 38.2825C8.23808 38.2088 8.54447 38.2243 8.85087 38.2359C9.10748 38.2437 9.36025 38.2515 9.61686 38.2437C9.71644 38.2437 9.82368 38.2243 9.9156 38.1855C9.97688 38.1583 10.0535 38.0924 10.065 38.0303C10.0956 37.8789 10.0956 37.7237 10.1033 37.5685C10.1377 36.9476 10.1645 36.3267 10.199 35.7096C10.222 35.2983 10.2603 34.8831 10.2794 34.4717C10.3101 33.8508 10.3254 33.2338 10.3982 32.6129C10.5016 31.7165 10.605 30.8161 10.5973 29.9081C10.5973 29.7024 10.6165 29.4928 10.6433 29.291C10.7544 28.5227 10.9152 27.7621 10.9842 26.9898C11.0569 26.1826 11.2944 25.422 11.5012 24.6459C11.5357 24.5217 11.6046 24.4053 11.6238 24.2811C11.7118 23.7068 11.9799 23.2101 12.2174 22.6901C12.5927 21.8712 13.1672 21.293 13.9983 20.9748C14.2894 20.8623 14.5537 20.7109 14.7988 20.5247C15.3082 20.1327 15.8252 19.7524 16.3269 19.3566C16.6295 19.1199 16.9167 18.8599 17.1274 18.53C17.4912 17.9673 17.8742 17.4163 18.2151 16.8419C18.7092 16.0153 19.073 15.1383 19.1802 14.1682C19.2875 13.1902 19.3871 12.2123 19.3603 11.2266C19.3373 10.3962 19.2377 9.57735 19.0577 8.77018C18.8892 8.01345 18.6479 7.27613 18.4143 6.5388C18.1002 5.53372 17.5793 4.64117 16.9091 3.85727C16.0205 2.81726 14.9903 1.92471 13.8068 1.23396C13.037 0.787682 12.2289 0.562604 11.325 0.570365C10.268 0.578127 9.24153 0.77992 8.2151 0.985595C7.00867 1.22619 5.88266 1.73456 4.74899 2.20024C4.04045 2.49517 3.46596 3.04234 2.83785 3.48473C2.77657 3.52742 2.73061 3.59339 2.68082 3.65548C2.34379 4.07847 2.00292 4.4937 1.67737 4.92833C1.38247 5.32416 1.19863 5.77043 1.06841 6.25164C0.823296 7.15583 0.727547 8.07942 0.696908 9.01078C0.681588 9.42989 0.880745 9.76362 1.20629 9.99646C1.3863 10.1245 1.60461 10.2177 1.84589 10.2409C2.12548 10.2681 2.40507 10.3108 2.68082 10.3535C3.25914 10.4389 3.83747 10.5747 4.42728 10.3884C4.52303 10.3574 4.63027 10.3729 4.73368 10.3768C5.24306 10.3923 5.33498 10.2565 5.36562 9.73258C5.37328 9.60452 5.38094 9.47257 5.3886 9.34451C5.44988 8.40928 5.63754 7.49732 6.00905 6.63582C6.15076 6.30596 6.30012 5.96059 6.52226 5.68894C6.98186 5.13789 7.46826 4.61012 8.1002 4.2337C8.78576 3.82235 9.48664 3.58563 10.2833 3.81071C10.356 3.83011 10.4365 3.83011 10.5092 3.84563C11.3825 4.01638 12.1561 4.42773 12.8072 5.02147C13.554 5.70058 14.1171 6.54268 14.5728 7.43911C14.9213 8.12599 15.1856 8.86331 15.4384 9.59287C15.6337 10.1517 15.7524 10.7377 15.7869 11.3353C15.8061 11.6962 15.8252 12.061 15.8558 12.418C15.9593 13.5783 15.7563 14.6882 15.3197 15.7553C15.0707 16.3685 14.6647 16.8458 14.0902 17.1912C13.2898 17.6763 12.428 17.9984 11.5318 18.1963C11.011 18.3127 10.4863 18.4175 9.96156 18.53C9.31429 18.6697 8.66703 18.8482 8.13084 19.279C7.99296 19.3915 7.84742 19.5079 7.75168 19.6554C7.58699 19.9154 7.43762 20.1832 7.35719 20.4897C7.21931 21.0175 7.11973 21.5492 7.08143 22.0924C7.02781 22.8686 7.0393 23.6447 7.02781 24.4208C7.01632 25.4026 7.02015 26.3844 7.16569 27.3585C7.19633 27.5642 7.19633 27.7698 7.20016 27.9794C7.24229 29.5316 7.28059 31.0839 7.31889 32.6362H7.33421Z" fill="black"/>
<path d="M10.8123 42.435C10.8506 43.1684 10.6476 43.8669 10.5289 44.581C10.4791 44.8914 10.2838 45.0233 9.98122 45.0001C9.80505 44.9845 9.62504 44.969 9.45269 44.9263C8.8782 44.7905 8.29222 44.7711 7.70623 44.7517C7.60282 44.7517 7.50325 44.7478 7.39984 44.7323C7.23898 44.709 7.11259 44.6275 7.05131 44.4684C6.99769 44.3248 6.92875 44.1774 6.91343 44.026C6.83683 43.312 6.70279 42.5979 6.86747 41.8723C6.91726 41.6472 6.89811 41.4105 6.91343 41.1776C6.92875 40.9487 7.04748 40.7934 7.25813 40.712C7.49942 40.6227 7.74453 40.5684 8.00497 40.5528C8.38413 40.5257 8.76713 40.4946 9.14629 40.4442C9.48333 40.4015 9.80122 40.386 10.0655 40.6693C10.1459 40.7546 10.2914 40.7818 10.4102 40.8245C10.6247 40.9021 10.7204 41.069 10.7664 41.2863C10.8506 41.6705 10.8506 42.0508 10.8085 42.4388L10.8123 42.435ZM10.2608 42.2099C10.2608 42.1051 10.2723 41.8994 10.2608 41.6938C10.2417 41.4221 10.008 41.1272 9.75143 41.0923C9.14629 41.0146 8.53733 40.9914 7.9322 41.1155C7.88241 41.1272 7.84028 41.1543 7.79432 41.1776C7.66793 41.2358 7.59516 41.329 7.57218 41.4648C7.53006 41.717 7.47644 41.9693 7.44963 42.2254C7.39218 42.7648 7.41133 43.3042 7.55303 43.832C7.60665 44.0338 7.73304 44.1153 7.92454 44.1657C8.51818 44.3171 9.13863 44.1929 9.73228 44.3559C9.83568 44.383 9.93526 44.3054 9.96207 44.1968C10.1114 43.5759 10.3451 42.9666 10.2646 42.206L10.2608 42.2099Z" fill="black"/>
</g>
<defs>
<clipPath id="clip0_124_239">
<rect width="20" height="45" fill="white"/>
</clipPath>
</defs>
</svg>
