<svg width="17" height="17" viewBox="0 0 17 17" fill="none" xmlns="http://www.w3.org/2000/svg">
<g clip-path="url(#clip0_196_76)">
<path d="M8.49935 1.41675C12.4115 1.41675 15.5827 4.58796 15.5827 8.50008C15.5827 12.4122 12.4115 15.5834 8.49935 15.5834C4.58722 15.5834 1.41602 12.4122 1.41602 8.50008C1.41602 4.58796 4.58722 1.41675 8.49935 1.41675ZM8.49935 2.83341C6.99646 2.83341 5.55512 3.43044 4.49241 4.49314C3.4297 5.55585 2.83268 6.99719 2.83268 8.50008C2.83268 10.003 3.4297 11.4443 4.49241 12.507C5.55512 13.5697 6.99646 14.1667 8.49935 14.1667C10.0022 14.1667 11.4436 13.5697 12.5063 12.507C13.569 11.4443 14.166 10.003 14.166 8.50008C14.166 6.99719 13.569 5.55585 12.5063 4.49314C11.4436 3.43044 10.0022 2.83341 8.49935 2.83341ZM8.49935 10.6251C8.68721 10.6251 8.86738 10.6997 9.00022 10.8325C9.13305 10.9654 9.20768 11.1456 9.20768 11.3334C9.20768 11.5213 9.13305 11.7014 9.00022 11.8343C8.86738 11.9671 8.68721 12.0417 8.49935 12.0417C8.31149 12.0417 8.13132 11.9671 7.99848 11.8343C7.86564 11.7014 7.79102 11.5213 7.79102 11.3334C7.79102 11.1456 7.86564 10.9654 7.99848 10.8325C8.13132 10.6997 8.31149 10.6251 8.49935 10.6251ZM8.49935 4.25008C8.68721 4.25008 8.86738 4.32471 9.00022 4.45755C9.13305 4.59039 9.20768 4.77055 9.20768 4.95841V9.20842C9.20768 9.39628 9.13305 9.57644 9.00022 9.70928C8.86738 9.84212 8.68721 9.91675 8.49935 9.91675C8.31149 9.91675 8.13132 9.84212 7.99848 9.70928C7.86564 9.57644 7.79102 9.39628 7.79102 9.20842V4.95841C7.79102 4.77055 7.86564 4.59039 7.99848 4.45755C8.13132 4.32471 8.31149 4.25008 8.49935 4.25008Z" fill="#FF0000"/>
</g>
<defs>
<clipPath id="clip0_196_76">
<rect width="17" height="17" fill="white"/>
</clipPath>
</defs>
</svg>
