<svg width="108" height="130" viewBox="0 0 108 130" fill="none" xmlns="http://www.w3.org/2000/svg">
<g clip-path="url(#clip0_124_41)">
<path d="M32.2882 50.2099C33.5011 52.7871 34.8527 55.0393 36.2852 57.2334C36.5855 57.6978 37.0129 57.7094 37.475 57.396C38.0873 56.9896 38.4569 56.4556 38.7111 55.7707C39.3695 54.0293 40.6056 52.6014 41.3681 50.918C41.4027 50.8484 41.4489 50.7903 41.4951 50.7207C41.7608 50.3143 42.1074 49.9777 42.6157 50.0357C43.1933 50.0938 43.5745 50.4304 43.7709 51.0109C44.3831 52.7639 45.0069 54.5053 45.6654 56.2467C45.908 56.8968 46.2546 57.5005 46.578 58.1157C46.6358 58.2086 46.8322 58.2899 46.9477 58.2783C47.0748 58.2551 47.2365 58.139 47.2942 58.0229C47.4906 57.6049 47.6524 57.1638 47.8256 56.7342C49.5931 52.1834 51.7302 47.8184 53.8789 43.4417C54.1908 42.8148 54.5374 42.2227 54.8608 41.6074C55.011 41.3172 54.8377 40.9805 54.5143 40.8761C54.2255 40.7832 53.9251 40.7019 53.6248 40.6439C50.4595 39.9589 49.1426 35.6287 51.1642 33.1675C51.8111 32.3781 52.5504 31.7164 53.3706 31.1475C53.9367 30.7528 54.5951 30.4858 55.1958 30.1608C56.9171 29.232 59.9553 29.975 60.8101 32.3085C61.0181 32.8889 61.2491 33.481 61.3415 34.0847C61.6303 35.9538 61.2376 37.6371 59.7936 38.9489C59.343 39.3669 58.8347 39.7267 58.3264 40.075C57.8759 40.3769 57.7604 40.7832 57.8066 41.2708C58.107 44.4285 58.4189 47.5862 59.1004 50.6975C59.1466 50.918 59.1697 51.2199 59.4585 51.1734C59.6434 51.1502 59.8744 50.9761 59.9784 50.8019C60.8448 49.4437 61.7112 48.0738 62.5545 46.6807C62.9935 45.9493 63.3747 45.1947 63.8021 44.4517C63.9523 44.1847 64.1256 43.9293 64.3104 43.6739C64.4952 43.4185 65.0613 43.2792 65.3732 43.4069C65.662 43.5346 65.893 43.7551 65.9277 44.0918C65.9739 44.4749 65.9854 44.858 65.997 45.2527C66.0432 46.878 66.0779 48.5033 66.1356 50.1286C66.1818 51.127 66.2049 51.127 67.1291 52.0673C67.2562 51.9861 67.4295 51.928 67.4988 51.8119C69.2662 48.4685 71.5189 45.4269 73.4712 42.1647C71.0337 40.4697 70.3175 37.9273 69.8092 35.3385C69.0929 31.6003 72.6394 28.431 75.9086 28.3961C77.318 28.3845 78.4501 29.0347 79.2703 30.1491C80.4024 31.6932 80.8645 33.481 80.8298 35.3965C80.8067 36.2904 80.4602 37.0798 79.8941 37.73C78.8313 38.9489 78.092 40.4465 76.7057 41.3869C76.3592 41.619 76.2899 42.0138 76.2899 42.4201C76.2899 42.6523 76.2899 42.8845 76.3245 43.1166C76.8328 46.1234 76.6133 49.1302 76.4054 52.1486C76.2321 54.5401 76.209 56.9432 76.1628 59.3463C76.1166 62.3763 75.8047 65.3715 75.539 68.3783C75.4004 69.9223 75.3195 71.4663 75.331 73.022C75.3541 77.0504 75.3657 81.0788 75.4119 85.0956C75.435 87.104 75.5505 89.124 75.6083 91.1324C75.6545 92.6764 75.7238 94.2204 75.5274 95.776C75.4119 96.6932 75.4928 97.6335 75.4812 98.5506C75.4812 98.8525 75.5043 99.1659 75.4581 99.4678C75.3773 99.9437 74.7303 100.478 74.2798 100.42C69.5204 99.8277 64.7378 100.153 59.9668 100.211C58.8925 100.222 57.8182 100.385 56.7438 100.443C55.7388 100.501 54.7453 100.513 53.7403 100.524C51.7418 100.559 49.7317 100.385 47.7563 100.861C45.0416 100.861 42.4077 101.523 39.7277 101.824C38.2028 101.999 36.6548 102.01 35.1184 102.045C34.0094 102.068 32.9928 101.743 32.1264 101.012C31.4911 100.478 31.1329 99.8393 31.2254 98.9918C31.4333 96.9834 31.4102 94.9518 31.1445 92.9666C30.7748 90.2733 30.7864 87.5683 30.7864 84.8634C30.7864 82.7737 30.7979 80.6841 30.8095 78.5828C30.8095 78.0372 30.8095 77.5031 30.7748 76.9575C30.6016 73.1729 30.5438 69.3651 30.2088 65.5921C29.8622 61.6566 30.024 57.6978 29.6081 53.7623C29.5157 52.9148 29.4464 52.0673 29.3539 51.2199C29.2731 50.5001 29.1113 50.3027 28.3027 50.326C26.2464 50.3724 24.9988 49.3043 24.2017 47.5281C24.0747 47.2495 23.9476 46.9593 23.8552 46.6691C22.8155 43.4997 23.2429 42.7568 25.2761 40.6207C26.6392 39.1927 28.3489 38.2988 30.4629 38.5658C31.9531 38.7516 33.0737 39.5642 33.813 40.7948C34.3213 41.6423 34.6794 42.629 34.8989 43.5926C35.3956 45.868 34.8643 47.888 33.0506 49.4785C32.8195 49.6758 32.6116 49.8964 32.2882 50.2099ZM58.1301 33.1327C58.2456 32.0647 57.564 31.6467 56.6976 31.4029C56.6399 31.3913 56.5474 31.4145 56.4897 31.461C56.455 31.4842 56.4204 31.6003 56.4435 31.6235C57.0095 32.1227 57.5871 32.6219 58.1532 33.1095C58.1878 33.481 58.1763 33.8641 58.2687 34.224C58.338 34.5374 58.1301 34.9437 58.5113 35.1759C58.904 34.9205 58.9849 34.5606 58.8809 34.1891C58.7654 33.748 58.5459 33.3649 58.1185 33.1443L58.1301 33.1327ZM32.8542 78.397C33.3625 77.863 33.478 77.2593 33.478 76.6557C33.478 75.5412 33.9979 74.566 34.2173 73.5096C34.2751 73.2426 34.5292 72.9755 34.7718 72.813C35.2801 72.4531 36.0888 72.5344 36.47 72.9871C36.9205 73.5096 37.3364 74.0784 37.7292 74.6473C38.0526 75.1232 38.4338 75.4599 39.0576 75.4019C39.7623 75.3322 40.2244 75.7037 40.5825 76.261C40.9984 76.9111 41.4143 77.5496 41.6915 78.2926C42.0265 79.1516 42.477 79.9759 42.9391 80.7769C43.2048 81.2413 43.5745 81.636 43.9211 82.0539C44.1174 82.2861 44.5795 82.2165 44.7066 81.9379C45.1918 80.8814 45.6654 79.8366 46.1275 78.7685C47.3982 75.8662 48.6343 72.9523 49.9166 70.05C50.3902 68.9936 50.9216 67.9604 51.4645 66.9387C51.8458 66.219 52.4927 65.8823 53.1973 66.1725C53.9367 66.4744 54.676 66.5208 55.4384 66.6137C55.8197 66.6601 56.0854 67.1129 56.0276 67.4728C55.9236 68.0765 55.346 68.5873 55.5308 69.2258C55.7272 69.8875 56.0045 70.5608 56.3973 71.1181C56.9864 71.9539 57.1597 72.9639 57.6911 73.8114C58.8001 75.576 59.8398 77.387 60.9025 79.1749C60.9834 79.3026 61.0989 79.4303 61.226 79.4883C61.3415 79.5464 61.5957 79.5696 61.6303 79.5115C62.104 78.7221 62.6007 77.9327 63.005 77.1084C63.6404 75.785 64.2411 74.4383 64.8071 73.08C65.6735 71.0136 66.8981 69.0981 67.3255 66.8575C67.337 66.7878 67.3832 66.7182 67.4063 66.6485C67.5334 66.3235 67.9377 66.0797 68.3421 66.0913C68.7579 66.0913 69.1276 66.2654 69.2662 66.6601C69.7514 68.0416 70.3059 69.4115 70.6525 70.8394C71.2301 73.2658 72.1889 75.5412 73.1362 77.8282C73.1939 77.9559 73.321 78.0604 73.425 78.1649C73.4712 78.1997 73.6329 78.1997 73.6329 78.1881C73.7022 77.8978 73.8062 77.596 73.7946 77.2942C73.7369 74.508 73.552 71.7334 73.8062 68.9471C74.0488 66.3235 74.1989 63.6998 74.3491 61.0761C74.4531 59.2999 74.4877 57.5121 74.5455 55.7359C74.6379 53.0309 74.7419 50.3143 74.7996 47.6094C74.8112 46.7619 74.7072 45.9145 74.6148 45.067C74.5917 44.858 74.43 44.6026 74.2451 44.5097C74.0257 44.382 73.8408 44.6142 73.7138 44.7884C73.1362 45.6126 72.547 46.4253 72.0041 47.2727C70.3868 49.7339 68.9081 52.2647 67.8107 55.0161C67.0944 56.8155 66.3436 58.5917 65.5696 60.3679C64.5761 62.6433 63.779 64.9884 63.2823 67.4263C63.2014 67.7978 63.0743 68.1693 62.9011 68.5176C62.6816 68.9588 62.2772 69.2142 61.8036 69.2838C61.6072 69.3186 61.33 69.2374 61.1913 69.0981C60.9834 68.8891 60.8101 68.6105 60.6946 68.3319C59.551 65.6153 58.8347 62.7826 58.6383 59.8223C58.5459 58.4292 58.4189 57.0361 58.2109 55.6662C57.5871 51.6842 56.9171 47.7255 56.2471 43.7551C56.224 43.6507 56.0622 43.4997 55.9583 43.4881C55.8312 43.4881 55.6464 43.5578 55.5771 43.6623C55.2305 44.1731 54.8724 44.6839 54.6067 45.2411C53.671 47.1915 52.7353 49.1418 51.8458 51.127C50.9331 53.1702 50.0321 55.2367 49.2119 57.3147C48.7036 58.6033 48.2069 59.9152 48.2531 61.3431C48.2531 61.5637 48.2184 61.8307 48.1029 62.0048C47.1441 63.4676 46.8553 65.1625 46.4625 66.811C46.0697 68.4828 45.3997 70.05 44.8683 71.6637C44.7181 72.1165 44.4524 72.488 44.1059 72.813C43.7131 73.1961 43.0315 73.1729 42.6388 72.813C42.1189 72.3254 41.8417 71.6869 41.5298 71.06C40.9753 69.9571 40.5594 68.7498 39.8432 67.763C38.8266 66.3699 38.0988 64.8143 37.4288 63.2818C36.1581 60.3563 34.5408 57.6398 32.9235 54.9232C32.8311 54.7607 32.6809 54.4937 32.4037 54.7607C32.4961 56.7691 32.7502 58.7775 32.6463 60.7743C32.5538 62.713 32.6578 64.6401 32.7156 66.5673C32.7387 67.3451 32.7502 68.1113 32.7502 68.8891C32.7964 72.0468 32.8426 75.2161 32.8889 78.4435L32.8542 78.397ZM67.21 77.596C66.5862 77.7701 66.4244 78.2461 66.2742 78.6641C65.6158 80.4054 65.0035 82.1468 64.3682 83.8998C63.9985 84.9214 63.675 85.9546 63.2592 86.953C62.7624 88.1256 60.995 88.439 60.1632 87.4638C59.0773 86.1868 57.8875 84.9679 57.46 83.2381C57.333 82.7273 56.9633 82.2745 56.6745 81.8218C56.016 80.7769 55.3229 79.7437 54.6529 78.7105C54.0637 77.805 53.4861 76.8878 52.8854 75.9939C52.689 75.7037 52.3078 75.7385 52.1692 76.052C50.7137 79.3838 49.0271 82.6112 47.8718 86.0707C47.5022 87.162 47.2018 88.3113 45.9773 88.8453C45.7578 88.9498 45.6885 89.3677 45.5037 89.6232C45.2611 89.9482 44.903 90.1107 44.5102 90.1223C44.2099 90.1223 43.898 90.0295 43.5976 90.0527C42.9853 90.0875 42.5695 89.7973 42.2576 89.3213C42.0843 89.0659 41.911 88.8105 41.7377 88.5551C40.2475 86.21 38.7457 83.865 37.2555 81.5199C37.2093 81.4503 37.1631 81.4038 37.1053 81.3458C37.0476 81.2877 36.9898 81.2413 36.9436 81.1833C36.7819 81.0091 36.5046 81.0904 36.4122 81.3342C36.031 82.437 35.9617 83.6096 35.6382 84.7008C35.3032 85.8153 35.0375 86.9414 34.7372 88.0559C34.4715 89.1007 34.3329 90.192 33.5358 91.0163C33.1892 91.3645 33.2008 91.8637 33.2123 92.3281C33.2701 94.2668 33.3278 96.194 33.3971 98.1327C33.3971 98.3649 33.4549 98.5971 33.4896 98.8177C33.6051 99.5026 34.0325 99.9321 34.691 100.071C36.4353 100.443 38.2028 100.431 39.9703 100.304C42.0958 99.5258 44.36 99.491 46.5665 99.224C48.461 98.9918 50.3786 98.6551 52.3194 98.957C52.6197 99.0034 52.9316 98.957 53.2435 98.9802C55.1034 99.1427 56.9286 98.7944 58.777 98.7132C61.6996 98.5971 64.6339 98.6783 67.545 98.3417C67.9955 98.2952 68.4576 98.4229 68.9197 98.4346C70.1557 98.4694 71.3802 98.4926 72.6163 98.5042C72.9975 98.5042 73.3325 98.2256 73.425 97.8077C73.552 97.2852 73.7022 96.7512 73.7253 96.2172C73.7831 94.3597 73.7831 92.5022 73.8293 90.6448C73.8524 89.7509 73.5867 88.9963 73.0553 88.2765C72.3737 87.3478 71.5882 86.4306 71.1723 85.3742C70.2828 83.1336 68.9428 81.1368 68.0648 78.9079C67.88 78.4319 67.4988 78.0255 67.2215 77.6076L67.21 77.596ZM28.8687 45.1715C28.3836 45.1599 28.1641 44.8928 28.1987 44.7187C28.2911 44.115 28.8341 43.6623 28.7417 43.0005C28.6955 42.6871 28.5915 42.4085 28.3143 42.2343C28.0139 42.037 27.7251 42.1415 27.471 42.3272C26.7547 42.8728 26.593 43.5926 26.9627 44.3472C27.2053 44.8348 27.5403 45.2411 27.9908 45.5546C29.0651 46.3208 30.0933 46.0305 30.7979 44.7535C30.8326 44.6955 30.8095 44.591 30.7864 44.533C30.7171 44.3588 30.5785 44.3124 30.4398 44.4053C30.1164 44.6142 29.8276 44.8696 29.4926 45.0322C29.2384 45.1599 28.915 45.1831 28.8803 45.1831L28.8687 45.1715ZM55.4846 36.6039C55.6117 36.5458 55.8659 36.511 56.0045 36.3601C56.4319 35.8957 56.5705 35.292 56.5936 34.6767C56.6167 33.9337 55.9814 33.4694 55.1843 33.6319C54.8493 33.7016 54.6182 34.0382 54.8146 34.2936C55.2652 34.9205 55.2767 35.5126 54.9417 36.1859C54.8724 36.3369 55.1496 36.5574 55.4962 36.6039H55.4846ZM76.4747 29.9982C75.6429 29.6499 74.8112 29.7893 74.0488 30.1143C73.2632 30.4394 72.6394 31.0082 72.2698 31.7976C72.2235 31.8905 72.316 32.0647 72.3622 32.1808C72.3622 32.204 72.5123 32.204 72.547 32.1691C73.656 31.194 74.9845 30.6832 76.3592 30.242C76.4054 30.2304 76.4169 30.1143 76.4747 29.9982ZM44.5564 58.8471C44.4409 58.9748 44.36 59.0213 44.36 59.0677C44.3138 60.3099 44.7412 61.4824 44.9838 62.6782C44.9838 62.7246 45.2957 62.8059 45.3535 62.7478C45.7232 62.4344 45.9658 61.9816 45.8156 61.5289C45.5152 60.5885 45.1687 59.6598 44.5449 58.8471H44.5564ZM78.0573 33.5623C77.8956 32.3317 77.0985 31.7396 75.8509 31.9137C75.7931 31.9137 75.6892 32.0066 75.6892 32.0531C75.6892 32.1808 75.6892 32.3665 75.7816 32.4362C76.2321 32.8193 76.7057 33.1908 77.1794 33.539C77.3526 33.6667 77.5606 33.7596 77.7685 33.806C77.8378 33.8177 77.9534 33.6435 78.0573 33.5506V33.5623ZM28.3605 47.5514C28.0254 47.4585 27.6673 47.354 27.3092 47.2611C27.2515 47.2495 27.1706 47.3076 27.1244 47.354C27.0897 47.3888 27.0782 47.4933 27.1013 47.5281C27.6904 48.1783 28.372 48.5149 29.2615 48.1666C29.3193 48.1434 29.377 48.0622 29.4117 48.0041C29.4926 47.83 29.4464 47.6907 29.2731 47.6674C28.9843 47.621 28.6839 47.5862 28.372 47.5397L28.3605 47.5514ZM53.1742 38.1711C54.1562 39.2043 55.0688 39.1231 56.0507 38.8444C55.1496 38.8677 54.3872 38.3104 53.1742 38.1711ZM77.8494 36.5574C78.0342 36.1163 78.1959 35.7912 78.2999 35.4429C78.3346 35.3269 78.2306 35.1643 78.1613 35.0366C78.1382 34.9786 78.0458 34.9437 77.9765 34.9321C77.9187 34.9321 77.8032 34.9437 77.7916 34.9786C77.6646 35.4662 77.6761 35.9537 77.8378 36.5574H77.8494ZM32.4845 47.3076C32.369 47.4004 32.2535 47.4701 32.1611 47.5746C32.034 47.7139 32.0456 47.8996 32.1957 47.9345C32.2997 47.9577 32.4845 47.83 32.5423 47.7139C32.5885 47.6094 32.5192 47.4469 32.4961 47.3076H32.4845ZM40.028 57.9996C40.028 57.9996 40.132 57.9416 40.1897 57.9068C40.1204 57.8139 40.0511 57.7094 39.9703 57.6282C39.9703 57.6282 39.8778 57.6978 39.8316 57.721C39.9009 57.8139 39.9587 57.9068 40.028 57.9996ZM41.7262 66.6717C41.7262 66.6717 41.6338 66.7414 41.6106 66.7878C41.5875 66.8459 41.576 66.9504 41.6106 66.9852C41.7146 67.1129 41.7839 67.0664 41.7839 66.8575C41.7839 66.7878 41.7377 66.7298 41.7146 66.6717H41.7262ZM33.4665 45.4965C33.4665 45.4269 33.4896 45.334 33.4665 45.2992C33.3625 45.1715 33.2701 45.2295 33.2585 45.4269C33.2585 45.4849 33.3047 45.543 33.3394 45.601C33.3856 45.5662 33.4318 45.5314 33.478 45.4965H33.4665Z" fill="#0E51A0"/>
<path d="M81.5225 0.116072C81.5225 0.255383 81.6034 0.429521 81.5456 0.534004C79.9399 3.36665 78.8771 6.43148 77.6295 9.41505C77.2483 10.3438 76.7977 11.2377 76.3357 12.1316C75.8736 13.0371 75.2382 13.8266 74.2909 14.2677C73.9559 14.4186 73.5632 14.4535 73.182 14.4883C72.9625 14.5115 72.7199 14.3954 72.6968 14.1284C72.6852 13.9891 72.743 13.7917 72.8469 13.7221C74.2447 12.7701 75.0072 11.377 75.6656 9.86781C76.6476 7.60402 77.6988 5.36344 78.7731 3.15769C79.3507 1.98516 80.1825 0.963545 81.1067 0.0348074C81.1529 -0.0116294 81.2568 -0.0116294 81.3261 0.011589C81.3955 0.0231982 81.4417 0.0812443 81.511 0.127681L81.5225 0.116072Z" fill="#0E51A0"/>
<path d="M1.51287 102.579C1.39735 102.44 1.27028 102.335 1.22407 102.208C1.17786 102.068 1.16631 101.871 1.23562 101.755C1.97495 100.571 2.78359 99.4098 3.88104 98.5623C6.00661 96.9022 8.00511 95.0679 10.304 93.64C10.5581 93.4775 10.8469 93.3149 11.1357 93.2685C11.3205 93.2336 11.6093 93.3614 11.7249 93.5123C11.8404 93.6632 11.8635 93.965 11.7942 94.1508C11.5631 94.7545 11.0549 95.126 10.5581 95.4975C8.83686 96.7977 7.08095 98.0515 5.39435 99.3981C4.2507 100.304 3.22257 101.348 2.12513 102.312C1.9634 102.451 1.72081 102.486 1.52442 102.567L1.51287 102.579Z" fill="#0E51A0"/>
<path d="M87.9336 21.4655C87.2636 21.4423 86.7784 21.512 86.4319 21.1056C86.3626 21.0244 86.3626 20.769 86.4319 20.7225C86.6051 20.5948 86.8246 20.5136 87.0441 20.4439C88.2917 20.0724 89.5509 19.7241 90.8101 19.341C91.8844 19.016 92.6931 18.331 93.3053 17.4023C93.8945 16.4968 94.4836 15.5913 95.0612 14.6857C95.6851 13.7106 96.4013 12.8167 97.2677 12.0504C97.4179 11.9227 97.6605 11.8879 97.8799 11.8531C98.0532 11.8299 98.0879 12.2014 97.8799 12.4568C97.0828 13.5016 96.4821 14.6741 95.9276 15.8583C95.2923 17.1933 94.4721 18.3891 93.4324 19.4455C92.6469 20.2349 91.7689 20.7922 90.683 21.0476C89.7126 21.2682 88.7423 21.5236 87.9336 21.4539V21.4655Z" fill="#0E51A0"/>
<path d="M98.47 101.244C98.343 101.325 98.2159 101.476 98.1004 101.465C97.8924 101.465 97.5921 101.418 97.4766 101.267C97.0953 100.791 96.7372 100.28 96.4369 99.7348C95.582 98.1792 94.7272 96.6119 93.9416 95.0215C93.2832 93.6864 92.4745 92.4907 91.3655 91.4807C91.0305 91.1788 90.7648 90.7841 90.5107 90.401C90.4529 90.3197 90.5107 90.0875 90.5915 89.9947C90.6724 89.9018 90.8919 89.8089 90.9843 89.8554C92.4283 90.4358 93.7453 91.1556 94.5192 92.6532C94.9813 93.5471 95.4665 94.4178 95.8824 95.3349C96.6564 97.0183 97.4881 98.6784 98.2968 100.35C98.4354 100.629 98.5509 100.907 98.4585 101.221L98.47 101.244Z" fill="#0E51A0"/>
<path d="M63.1549 4.22577C63.2589 6.21094 63.0163 8.34704 62.8315 10.4947C62.7737 11.11 62.7159 11.7253 62.3694 12.2593C62.1499 12.6076 61.838 12.7934 61.4221 12.7818C61.1102 12.7701 60.7867 12.4915 60.7867 12.2245C60.7867 11.9227 60.7636 11.5976 60.8561 11.319C61.3297 9.99555 61.3875 8.61405 61.4221 7.22094C61.4683 5.36347 61.9073 3.57565 62.1614 1.753C62.2192 1.30024 62.3232 0.835875 62.7159 0.522427C62.8199 0.441162 62.9932 0.441162 63.1318 0.441162C63.1665 0.441162 63.2358 0.557254 63.2473 0.6153C63.282 0.835875 63.3282 1.06806 63.3166 1.28863C63.282 2.20576 63.2242 3.1345 63.1665 4.22577H63.1549Z" fill="#0E51A0"/>
<path d="M52.9429 11.1448C52.8043 11.8994 52.6541 12.8862 52.4577 13.8498C52.3537 14.3257 51.753 14.5463 51.3603 14.2909C51.083 14.1168 50.9213 13.8382 50.9906 13.5247C51.314 12.0735 51.1985 10.6224 51.1408 9.15964C51.1408 9.07837 51.1408 9.00872 51.1292 8.92745C50.6556 6.94228 51.0715 4.9571 51.1292 2.98353C51.1292 2.77457 51.2563 2.55399 51.3834 2.37985C51.4527 2.27537 51.6491 2.20572 51.7761 2.21733C51.9032 2.21733 52.0303 2.34503 52.1342 2.44951C52.1804 2.49595 52.2036 2.58882 52.2151 2.65848C52.4577 5.3286 52.6887 8.01032 52.9198 10.6804C52.9198 10.7617 52.9198 10.8314 52.9429 11.1448Z" fill="#0E51A0"/>
<path d="M95.4548 79.6508C96.7024 79.7901 97.9963 80.0223 98.9666 81.009C99.5442 81.6127 100.064 82.3325 100.434 83.0871C101.104 84.4802 101.693 85.9081 102.051 87.4289C102.143 87.8353 101.936 88.1835 101.473 88.2416C101.277 88.2648 100.954 88.2068 100.873 88.0675C100.595 87.6147 100.388 87.1039 100.18 86.6047C99.9139 85.9662 99.6829 85.3045 99.4056 84.666C98.7703 83.1916 97.7537 82.0771 96.3328 81.3109C95.9284 81.0903 95.5357 80.8465 95.166 80.5795C94.9927 80.4518 94.8657 80.208 95.0158 79.9642C95.0967 79.8481 95.2469 79.7901 95.4548 79.6392V79.6508Z" fill="#0E51A0"/>
<path d="M46.4163 120.817C46.3585 120.329 46.2777 120.016 46.3123 119.714C46.3354 119.517 46.4856 119.273 46.6473 119.18C46.8206 119.087 47.0979 119.099 47.2942 119.18C47.6755 119.319 47.8949 119.644 47.9989 120.028C48.1491 120.631 48.1722 121.247 48.0567 121.862C47.8487 123 47.6524 124.137 47.4329 125.263C47.1672 126.61 46.5896 127.899 46.6127 129.315C46.6127 129.536 46.2661 129.791 46.0466 129.977C45.9889 130.035 45.7116 129.977 45.6654 129.884C45.5037 129.628 45.3073 129.338 45.3188 129.071C45.3304 128.386 45.3882 127.678 45.5499 127.016C45.9311 125.368 46.0697 123.684 46.347 122.013C46.4278 121.56 46.4163 121.096 46.4278 120.817H46.4163Z" fill="#0E51A0"/>
<path d="M14.4976 105.179C14.463 105.272 14.4283 105.516 14.3128 105.69C13.9662 106.201 13.6197 106.712 13.2269 107.176C11.4941 109.161 10.1425 111.379 9.07971 113.793C8.98729 114.002 8.88332 114.211 8.75625 114.397C8.67539 114.502 8.50211 114.618 8.38659 114.606C8.29417 114.606 8.1902 114.409 8.14399 114.293C8.09779 114.153 8.07468 113.979 8.12089 113.84C8.86022 111.414 9.55334 108.976 11.2515 106.979C11.7944 106.34 12.245 105.609 12.7533 104.947C12.9959 104.634 13.3193 104.448 13.7236 104.39C14.0471 104.344 14.5554 104.762 14.5092 105.191L14.4976 105.179Z" fill="#0E51A0"/>
<path d="M20.0078 111.483C20.2619 111.994 20.2504 112.54 20.0655 113.051C19.1991 115.442 18.2981 117.822 17.6858 120.295C17.6281 120.55 17.2006 120.759 16.9465 120.666C16.6115 120.562 16.4036 120.295 16.4498 119.981C16.5999 118.994 16.7617 118.008 17.0043 117.032C17.3046 115.837 17.7205 114.676 18.0555 113.492C18.3443 112.458 18.8988 111.704 20.0078 111.472V111.483Z" fill="#0E51A0"/>
<path d="M98.1119 38.171C97.6961 38.1362 97.465 38.113 97.2455 38.0898C96.4715 37.9969 95.8824 37.637 95.9979 37.3352C96.2289 36.8012 96.7488 36.8244 97.1762 36.8244C99.2094 36.8244 101.127 36.1859 103.091 35.8028C103.969 35.6286 104.789 35.0946 105.632 34.7231C105.99 34.5722 106.349 34.4329 106.741 34.5838C106.811 34.607 106.903 34.6535 106.926 34.7115C106.949 34.7695 106.926 34.8856 106.88 34.9321C106.672 35.1527 106.487 35.4081 106.233 35.559C104.442 36.6618 102.536 37.4629 100.445 37.7647C99.6137 37.8808 98.7819 38.0433 98.1119 38.1594V38.171Z" fill="#0E51A0"/>
<path d="M99.7514 48.0505C98.9312 48.0505 97.8684 48.0505 96.7941 48.0505C96.5746 48.0505 96.3436 47.9924 96.1356 47.8995C96.0317 47.8531 95.9161 47.6906 95.9046 47.5629C95.893 47.4352 95.9623 47.2262 96.0548 47.1682C96.3898 46.9824 96.7248 46.7735 97.0944 46.727C97.776 46.6225 98.4576 46.5877 99.1507 46.5761C100.525 46.5645 101.9 46.5761 103.275 46.5877C103.725 46.5877 104.187 46.6574 104.638 46.727C105.031 46.7967 105.331 47.0289 105.574 47.3423C105.747 47.5745 105.816 48.0737 105.643 48.1782C105.458 48.2943 105.192 48.4452 105.031 48.3871C103.379 47.8299 101.681 48.2246 99.763 48.0505H99.7514Z" fill="#0E51A0"/>
<path d="M93.2139 107.629C93.1792 108.058 92.8442 108.442 92.5785 108.418C92.359 108.418 92.1049 108.337 91.9431 108.209C91.7699 108.07 91.6428 107.85 91.5735 107.629C91.0536 106.12 90.0602 104.947 88.9281 103.891C88.362 103.357 87.8537 102.788 87.4725 102.103C87.3685 101.906 87.2877 101.673 87.253 101.453C87.2299 101.325 87.3108 101.139 87.4032 101.047C87.4841 100.965 87.7266 100.919 87.796 100.977C89.032 102.01 90.3028 103.02 91.4811 104.123C92.3359 104.924 92.902 105.946 93.1677 107.107C93.2139 107.327 93.2139 107.559 93.2139 107.594V107.629Z" fill="#0E51A0"/>
<path d="M5.67156 50.5814C6.73435 50.6626 7.86645 50.651 9.0101 50.3956C9.89961 50.1983 10.8353 50.0822 11.7595 50.3027C11.9674 50.3492 12.2447 50.4653 12.1985 50.7555C12.1638 50.9529 12.0252 51.1386 11.9212 51.3243C11.8866 51.3824 11.7941 51.4056 11.7248 51.4404C11.6555 51.4753 11.5862 51.5217 11.5169 51.5333C9.63391 51.9048 7.77403 52.4156 5.82174 52.0441C5.3019 51.9396 4.75895 51.9745 4.21601 51.9745C3.69617 51.9745 3.3496 51.7075 3.0608 51.3243C2.97994 51.2199 2.95683 51.0225 3.00304 50.9064C3.04925 50.7787 3.18788 50.6046 3.29184 50.593C4.05428 50.5698 4.81671 50.5814 5.67156 50.5814Z" fill="#0E51A0"/>
<path d="M59.5623 123.29C59.5854 124.462 59.2388 125.565 58.9385 126.68C58.8576 126.993 58.615 127.202 58.28 127.202C57.9681 127.202 57.6216 126.761 57.6447 126.378C57.6678 125.844 57.6447 125.287 57.7833 124.776C58.28 122.953 58.0259 121.281 56.9977 119.714C56.8707 119.528 56.8245 119.296 56.7552 119.076C56.7321 119.018 56.7552 118.913 56.8014 118.878C56.9169 118.797 57.0555 118.669 57.1826 118.681C57.8179 118.762 58.3031 119.145 58.7652 119.552C58.9731 119.737 59.1233 120.051 59.2042 120.329C59.5045 121.293 59.5739 122.291 59.5739 123.29H59.5623Z" fill="#0E51A0"/>
<path d="M9.44995 81.3342C9.38064 81.5896 9.38064 81.8566 9.24201 81.9959C8.98787 82.2745 8.69907 82.5531 8.36406 82.7273C7.40524 83.2033 6.41176 83.6328 5.42984 84.0623C3.81256 84.7705 2.0913 85.2117 0.543329 86.094C0.450913 86.1404 0.26608 86.0475 0.127456 85.9895C-0.0689288 85.9082 -0.0458247 85.5948 0.15056 85.409C0.323841 85.2581 0.474017 85.0723 0.670402 84.9562C1.45594 84.4687 2.20682 83.923 3.03857 83.5515C4.72517 82.7969 6.43487 82.1236 7.99439 81.1252C8.22544 80.9743 8.58355 80.9511 8.87235 80.9743C9.05718 80.9859 9.23046 81.1949 9.4384 81.3342H9.44995Z" fill="#0E51A0"/>
<path d="M77.6294 118.077C77.6294 118.646 77.6641 119.041 77.6179 119.412C77.5948 119.61 77.4331 119.807 77.2944 119.958C77.1212 120.132 76.6706 120.028 76.4627 119.819C76.1739 119.54 76.0006 119.204 76.0122 118.797C76.0122 118.182 76.1046 117.567 76.0584 116.963C75.9428 115.477 75.527 114.095 74.4757 112.969C74.2678 112.749 74.0714 112.505 73.9097 112.25C73.8519 112.157 73.875 111.936 73.9443 111.855C74.0252 111.762 74.2216 111.681 74.3371 111.704C75.8851 112.052 77.0865 113.283 77.2829 114.827C77.4331 115.965 77.7912 117.091 77.6294 118.077Z" fill="#0E51A0"/>
<path d="M1.10938 66.1958C1.16714 66.0565 1.19024 65.8708 1.29421 65.7895C1.59456 65.5573 1.91802 65.3251 2.26458 65.1858C3.11943 64.8259 3.97428 64.4777 4.85223 64.2107C6.38866 63.7347 7.97128 63.4096 9.36908 62.5505C9.63478 62.388 9.95824 62.5157 10.2124 62.7247C10.5243 62.9801 10.5589 63.5025 10.2932 63.7347C9.63478 64.2919 8.87234 64.6402 8.0406 64.8375C7.13954 65.0465 6.23848 65.2207 5.34897 65.4528C4.0898 65.7895 2.84218 66.1726 1.58301 66.5209C1.46749 66.5557 1.29421 66.4512 1.16714 66.3932C1.13248 66.37 1.13248 66.2655 1.10938 66.2074V66.1958Z" fill="#0E51A0"/>
<path d="M107.133 59.3696C105.643 58.9401 104.107 59.1955 102.57 59.2187C101.727 59.2187 100.884 59.1955 100.04 59.1142C99.7631 59.091 99.4743 58.8936 99.2317 58.7195C99.1277 58.6499 99.07 58.4525 99.0815 58.3132C99.0815 58.1855 99.1971 58.0346 99.301 57.9417C99.4165 57.8488 99.5667 57.7908 99.7169 57.7675C101.935 57.5354 104.164 57.6282 106.394 57.6515C106.972 57.6515 107.422 57.9417 107.792 58.348C107.954 58.5221 108.081 58.7543 107.907 58.9633C107.78 59.1258 107.561 59.2187 107.376 59.3232C107.318 59.358 107.226 59.3464 107.133 59.358V59.3696Z" fill="#0E51A0"/>
<path d="M21.7064 19.782C21.8566 19.782 22.0299 19.7124 22.1569 19.7704C22.7114 20.0374 23.2775 20.2928 23.7858 20.6295C25.2067 21.5582 26.616 22.4986 28.0023 23.4738C28.1524 23.5782 28.268 23.8801 28.2449 24.089C28.2217 24.4025 28.0023 24.6579 27.6672 24.7275C27.4478 24.774 27.2052 24.7972 26.9857 24.7856C26.8355 24.7856 26.6853 24.7043 26.5467 24.6463C25.6918 24.2748 22.0992 21.3841 21.5447 20.6063C21.4638 20.5018 21.4523 20.3044 21.4754 20.1767C21.4985 20.0374 21.6255 19.9213 21.7064 19.7936V19.782Z" fill="#0E51A0"/>
<path d="M35.3727 18.122C35.0031 18.7025 34.3446 18.8186 33.9518 18.4471C33.7901 18.2845 33.6284 18.122 33.4782 17.9479C32.4963 16.7637 31.4797 15.6144 30.3245 14.5928C30.0473 14.349 29.874 13.9891 29.7122 13.6408C29.6314 13.4667 29.6198 13.1881 29.7007 13.014C29.8162 12.7469 30.105 12.8166 30.3014 12.8979C30.648 13.0488 31.0292 13.1881 31.318 13.4319C32.8082 14.6508 34.1482 16.0323 35.315 17.5648C35.4421 17.7389 35.5345 17.9943 35.3727 18.1336V18.122Z" fill="#0E51A0"/>
<path d="M1.23636 77.1317C1.01687 77.0156 0.866694 76.8183 0.936006 76.5861C1.00532 76.2958 1.09773 75.9708 1.29412 75.7734C1.88327 75.1813 2.48398 74.5545 3.16555 74.0901C4.36696 73.2774 5.62613 72.5461 6.88531 71.8147C7.05859 71.7102 7.32428 71.7218 7.54377 71.7334C7.6824 71.7334 7.87878 71.8495 7.91344 71.954C7.98275 72.1513 8.05206 72.4416 7.95964 72.5809C7.4398 73.3703 6.66582 73.9043 5.85717 74.3107C4.34386 75.0769 2.9114 75.9243 1.66378 77.0853C1.58292 77.1665 1.37498 77.1317 1.23636 77.1433V77.1317Z" fill="#0E51A0"/>
<path d="M69.4277 122.338C69.3469 123.174 69.266 124.021 69.1736 124.857C69.1389 125.113 68.7115 125.542 68.5729 125.449C68.3188 125.298 68.0993 125.089 67.9144 124.857C67.822 124.753 67.8105 124.567 67.8105 124.416C67.8105 124.114 67.8105 123.801 67.8336 123.499C67.9953 121.769 67.7989 120.121 66.6784 118.693C66.6322 118.635 66.5859 118.542 66.5975 118.484C66.6206 118.344 66.6437 118.17 66.7361 118.077C66.8285 117.984 67.0134 117.88 67.1289 117.915C68.0068 118.112 68.5729 118.751 69.1158 119.389C69.2891 119.598 69.3469 119.958 69.37 120.26C69.4046 120.945 69.37 121.641 69.37 122.338C69.3931 122.338 69.4162 122.338 69.4393 122.338H69.4277Z" fill="#0E51A0"/>
<path d="M98.5849 70.967C100.433 71.2573 102.328 71.5475 104.211 71.861C104.5 71.9074 104.788 72.0583 105.054 72.1976C105.331 72.3369 105.447 72.871 105.32 73.2308C105.193 73.5675 104.904 73.6836 104.603 73.7184C104.384 73.7416 104.153 73.672 103.922 73.6255C102.952 73.405 101.981 73.1612 101.011 72.9406C99.948 72.6968 98.9661 72.2905 98.0881 71.652C97.9957 71.5823 97.9495 71.3618 97.9842 71.2457C98.0188 71.1296 98.1805 71.0599 98.3076 70.9903C98.3654 70.9554 98.4578 70.9787 98.5849 70.967Z" fill="#0E51A0"/>
<path d="M12.1762 43.0354C10.8593 43.0819 9.60013 42.7568 8.30631 42.5595C7.87888 42.5014 7.67094 42.1648 7.50921 41.8049C7.39369 41.5379 7.60163 41.0851 7.86733 41.0735C8.24854 41.0619 8.65287 40.969 8.99943 41.0851C10.0391 41.4334 11.1019 41.4218 12.1762 41.4218C12.9387 41.4218 13.7011 41.503 14.4635 41.5843C14.683 41.6075 14.9025 41.7236 15.0874 41.8513C15.2029 41.921 15.3184 42.0951 15.3068 42.2112C15.3068 42.3389 15.1798 42.5246 15.0642 42.5711C14.7177 42.722 14.3596 42.8729 13.9899 42.9194C13.3892 43.0006 12.7654 42.989 12.1531 43.0238L12.1762 43.0354Z" fill="#0E51A0"/>
<path d="M18.2518 33.0282C16.4035 32.8425 14.7515 32.3549 13.4924 30.9618C13.4115 30.8689 13.3768 30.6483 13.423 30.5322C13.4692 30.4277 13.6541 30.3233 13.7812 30.3116C14.0006 30.2884 14.2548 30.3 14.4512 30.3697C16.1031 31.0082 17.7897 31.4377 19.5803 31.3216C19.7189 31.3216 19.8806 31.3913 20.0077 31.4726C20.1348 31.5538 20.2965 31.6815 20.2965 31.7976C20.2965 32.0066 20.2387 32.2852 20.1001 32.3897C19.7998 32.6103 19.4417 32.7612 19.0835 32.8889C18.7947 32.9818 18.4828 32.9934 18.2402 33.0282H18.2518Z" fill="#0E51A0"/>
<path d="M24.433 117.404C24.3637 117.81 24.3175 118.426 24.1442 119.006C23.6244 120.689 23.0583 122.361 22.4923 124.021C22.423 124.219 22.2497 124.416 22.0879 124.544C22.0186 124.602 21.7529 124.544 21.7067 124.462C21.6028 124.277 21.4872 124.021 21.5219 123.824C21.8916 122.106 22.0648 120.353 22.9428 118.762C23.3702 117.973 23.5551 117.044 23.867 116.197C23.8901 116.127 24.0865 116.092 24.2135 116.081C24.2366 116.081 24.3059 116.197 24.3175 116.266C24.3521 116.568 24.3868 116.87 24.433 117.392V117.404Z" fill="#0E51A0"/>
<path d="M29.8738 126.471C30.024 124.625 29.9778 122.953 29.25 121.351C29.0305 120.864 28.9035 120.33 28.7417 119.819C28.7302 119.772 28.7879 119.668 28.8341 119.633C28.8804 119.598 28.9843 119.587 29.019 119.61C30.1626 120.701 30.9944 121.932 30.9366 123.615C30.8904 124.927 31.0175 126.239 30.5785 127.504C30.5092 127.713 30.4052 127.934 30.2666 128.108C30.1973 128.201 29.9894 128.27 29.8854 128.235C29.7699 128.201 29.6197 128.015 29.6312 127.922C29.689 127.388 29.8045 126.865 29.8738 126.471Z" fill="#0E51A0"/>
<path d="M84.2725 112.517C84.2725 112.609 84.2725 112.691 84.2494 112.76C84.1916 112.9 84.1338 113.109 84.0299 113.132C83.8219 113.178 83.5793 113.19 83.3945 113.109C83.1981 113.027 82.9786 112.842 82.9209 112.644C82.5628 111.53 81.8003 110.694 81.0495 109.846C80.9801 109.765 80.9801 109.545 81.0263 109.429C81.0841 109.312 81.2458 109.173 81.3614 109.185C83.2559 109.266 84.0299 109.568 84.1801 111.634C84.2032 111.936 84.2378 112.238 84.2725 112.528V112.517Z" fill="#0E51A0"/>
</g>
<defs>
<clipPath id="clip0_124_41">
<rect width="108" height="130" fill="white"/>
</clipPath>
</defs>
</svg>
