<svg width="101" height="110" viewBox="0 0 101 110" fill="none" xmlns="http://www.w3.org/2000/svg">
<path d="M64.1094 59.0315C64.1394 60.5715 63.8494 62.2715 63.4694 63.9615C62.9394 66.3415 61.8894 68.4915 60.5694 70.5015C59.5494 72.0615 58.2994 73.4615 56.7594 74.5515C56.4294 74.7815 56.1194 75.0315 55.8094 75.2815C54.5594 76.3315 53.1094 77.0515 51.5294 77.3715C49.6394 77.7415 47.7794 78.2315 45.8294 78.3415C43.3294 78.4715 41.0694 77.8515 38.9394 76.6815C37.2894 75.7815 35.8994 74.5415 34.7894 73.0115C33.9294 71.8215 33.0194 70.6915 32.3094 69.3915C31.3494 67.6215 30.5494 65.8015 29.9594 63.8815C29.1894 61.3715 28.9394 58.8315 29.3994 56.1915C29.7694 54.0715 30.4194 52.0615 31.2394 50.0915C31.7094 48.9815 32.4994 48.0615 33.2994 47.1715C33.8794 46.5315 34.4394 45.8715 35.0394 45.2415C35.3994 44.8515 35.7794 44.4715 36.1994 44.1515C37.8694 42.9115 39.6694 41.9615 41.7094 41.4515C43.2594 41.0615 44.8394 40.8015 46.3194 40.1615C46.9494 39.8815 47.6394 39.8915 48.2894 39.9315C49.9494 40.0515 51.5794 40.2615 53.1194 40.9915C54.7494 41.7715 56.2694 42.7215 57.7694 43.7215C58.3794 44.1315 58.9194 44.6415 59.3194 45.2615C59.9694 46.2715 60.6694 47.2515 61.2094 48.3215C62.0494 49.9915 62.7494 51.7115 63.3394 53.4915C63.9194 55.2215 64.1494 56.9915 64.0994 59.0115L64.1094 59.0315ZM30.7694 59.0715C30.6494 60.5615 31.1294 62.4415 31.7194 64.2815C32.6694 67.2415 34.2394 69.8515 36.1594 72.2815C37.2994 73.7315 38.7094 74.8115 40.2994 75.6915C41.1794 76.1815 42.1294 76.5615 43.1194 76.6615C44.4994 76.8015 45.8794 76.9715 47.2894 76.7815C48.4194 76.6315 49.5094 76.3215 50.6094 76.0615C54.0294 75.2515 56.5594 73.1215 58.6394 70.4415C60.4994 68.0415 61.6794 65.2815 62.2194 62.2815C62.4594 60.9715 62.6994 59.6415 62.5794 58.3115C62.2694 54.6815 61.2294 51.2515 59.4094 48.0715C58.6094 46.6715 57.6694 45.3515 56.3694 44.3915C55.2994 43.6115 54.1294 42.9615 52.9494 42.3415C51.8094 41.7315 50.5994 41.3915 49.3094 41.9315C49.1394 42.0015 48.9094 41.9615 48.7194 41.9815C46.6094 42.2415 44.4694 42.2715 42.4294 42.9915C42.1794 43.0815 41.8994 43.0615 41.6394 43.1115C39.9194 43.4815 38.3094 44.1215 36.9694 45.2615C35.5494 46.4715 34.3694 47.9315 33.1994 49.3815C32.9894 49.6415 32.8394 49.9415 32.6994 50.2515C31.4994 52.8915 30.8394 55.6615 30.7694 59.0515V59.0715Z" fill="#0E51A0"/>
<path d="M41.6787 14.2215C41.9687 12.0515 42.3587 10.0215 43.2887 8.15146C44.6687 5.39146 46.5187 2.96146 48.7987 0.871458C49.3087 0.401458 49.8887 0.101458 50.5587 0.00145797C50.6987 -0.018542 50.8987 0.171458 51.0287 0.311458C51.0987 0.391458 51.1187 0.591458 51.0587 0.681458C50.7787 1.13146 50.4987 1.58146 50.1687 1.99146C49.1087 3.31146 48.4387 4.80146 47.9487 6.42146C47.5487 7.74146 47.5687 9.06146 47.7087 10.3715C47.8287 11.4615 48.3687 12.3915 49.1887 13.1315C49.5287 13.4415 49.9287 13.6915 50.2987 13.9815C50.9287 14.4815 51.5287 15.0115 52.1687 15.4815C53.7987 16.6715 54.0387 18.3115 53.6087 20.1115C53.1887 21.8715 52.4887 23.5215 51.1287 24.8115C50.4487 25.4515 49.7687 26.0815 48.8687 26.4115C48.3287 26.6015 47.7187 26.2915 47.6487 25.7515C47.6187 25.4915 47.6287 25.2215 47.6287 24.9515C47.6487 23.7815 47.3087 22.7215 46.7487 21.7115C46.2587 20.8315 45.6687 20.0315 44.7787 19.5015C44.3787 19.2615 43.9887 19.0115 43.6187 18.7215C43.3087 18.4715 42.9987 18.2015 42.7787 17.8815C41.9887 16.7515 41.8187 15.4315 41.6787 14.2115V14.2215ZM45.9487 6.88146C45.8187 6.88146 45.7187 6.86146 45.6987 6.90146C43.9887 9.33146 43.2787 12.0515 43.4087 14.9815C43.4587 16.1315 43.9387 17.1815 45.0987 17.7315C45.2187 17.7915 45.3087 17.9015 45.4187 17.9715C47.0287 18.9415 48.1087 20.3215 48.6387 22.1215C48.7487 22.5015 48.9087 22.8715 49.0587 23.2415C49.2787 23.7815 49.6887 23.8215 50.1387 23.3915C50.5287 23.0115 50.8187 22.5815 51.0587 22.1015C51.4787 21.2615 51.6387 20.3415 51.8787 19.4415C52.2087 18.2115 51.7887 17.2115 50.8787 16.4015C50.4787 16.0515 50.0287 15.7615 49.6087 15.4415C49.1887 15.1215 48.7587 14.8015 48.3387 14.4815C46.6187 13.1715 45.8987 11.4015 45.9487 9.27146C45.9687 8.48146 45.9487 7.68146 45.9487 6.89146V6.88146Z" fill="#0E51A0"/>
<path d="M53.7887 95.4615C53.4987 97.6315 53.1087 99.6615 52.1787 101.531C50.7987 104.291 48.9487 106.721 46.6687 108.811C46.1587 109.281 45.5787 109.581 44.9087 109.681C44.7687 109.701 44.5687 109.511 44.4387 109.371C44.3687 109.291 44.3487 109.091 44.4087 109.001C44.6887 108.551 44.9687 108.101 45.2987 107.691C46.3587 106.371 47.0287 104.881 47.5187 103.261C47.9187 101.941 47.8987 100.621 47.7587 99.3115C47.6387 98.2215 47.0987 97.2915 46.2787 96.5515C45.9387 96.2415 45.5387 95.9915 45.1687 95.7015C44.5387 95.2015 43.9387 94.6715 43.2987 94.2015C41.6687 93.0115 41.4287 91.3715 41.8587 89.5715C42.2787 87.8115 42.9787 86.1615 44.3387 84.8715C45.0187 84.2315 45.6987 83.6015 46.5987 83.2715C47.1387 83.0815 47.7487 83.3915 47.8187 83.9315C47.8487 84.1915 47.8387 84.4615 47.8387 84.7315C47.8187 85.9015 48.1587 86.9615 48.7187 87.9715C49.2087 88.8515 49.7987 89.6515 50.6887 90.1815C51.0887 90.4215 51.4787 90.6715 51.8487 90.9615C52.1587 91.2115 52.4687 91.4815 52.6887 91.8015C53.4787 92.9315 53.6487 94.2515 53.7887 95.4715V95.4615ZM49.5187 102.791C49.6487 102.791 49.7487 102.811 49.7687 102.771C51.4787 100.341 52.1887 97.6215 52.0587 94.6915C52.0087 93.5415 51.5287 92.4915 50.3687 91.9315C50.2487 91.8715 50.1587 91.7615 50.0487 91.6915C48.4387 90.7215 47.3587 89.3415 46.8287 87.5415C46.7187 87.1615 46.5587 86.7915 46.4087 86.4215C46.1887 85.8815 45.7787 85.8415 45.3287 86.2715C44.9387 86.6515 44.6487 87.0815 44.4087 87.5615C43.9887 88.4015 43.8287 89.3215 43.5887 90.2215C43.2587 91.4515 43.6787 92.4515 44.5887 93.2615C44.9887 93.6115 45.4387 93.9015 45.8587 94.2215C46.2787 94.5415 46.7087 94.8615 47.1287 95.1815C48.8487 96.4915 49.5687 98.2615 49.5187 100.391C49.4987 101.181 49.5187 101.981 49.5187 102.771V102.791Z" fill="#0E51A0"/>
<path d="M14.6092 60.8714C13.4592 60.9714 12.2892 60.5614 11.1592 59.9214C9.70915 59.1014 8.17915 58.4514 6.51915 58.1414C4.57915 57.7814 2.95915 58.2814 1.70915 59.8414C1.58915 59.9914 1.46915 60.1614 1.32915 60.3014C1.07915 60.5414 0.509153 60.5214 0.219153 60.2814C-0.000847176 60.0914 -0.0808471 59.6414 0.0991529 59.3614C0.739153 58.3514 1.36915 57.3314 2.04915 56.3414C3.47915 54.2714 5.31915 52.6714 7.56915 51.5514C9.72915 50.4814 11.9892 50.1314 14.3592 50.6614C14.7492 50.7514 15.1392 50.8514 15.4892 51.0314C17.8692 52.2614 20.0392 53.7814 21.8192 55.8114C22.0592 56.0814 22.0592 56.5214 21.7392 56.6814C21.2892 56.9114 21.0492 57.2814 20.7792 57.6614C20.4792 58.0914 20.1292 58.5014 19.7792 58.9014C18.4592 60.4214 16.7492 60.9914 14.6092 60.8614V60.8714ZM20.1292 56.1314C19.8892 55.8614 19.7192 55.5614 19.4592 55.3714C18.3792 54.5914 17.2792 53.8414 16.1792 53.0914C13.9992 51.6114 11.6392 51.6414 9.27915 52.4214C7.20915 53.1014 5.53915 54.4314 4.11915 56.0814C4.07915 56.1314 4.05915 56.2014 4.03915 56.2614C4.02915 56.3214 3.99915 56.4114 4.03915 56.4514C4.10915 56.5414 4.20915 56.6714 4.30915 56.6814C4.56915 56.7114 4.83915 56.7014 5.10915 56.6914C6.66915 56.6314 8.15915 56.8914 9.57915 57.5714C10.4792 58.0014 11.4092 58.3714 12.3092 58.8114C13.3492 59.3314 14.4392 59.5214 15.5992 59.5114C16.7992 59.5114 17.7792 59.0414 18.6692 58.2714C19.3492 57.6814 19.5892 56.8314 20.1492 56.1214L20.1292 56.1314Z" fill="#0E51A0"/>
<path d="M19.6287 20.1414C20.4687 20.2014 21.5187 20.2114 22.5387 20.6314C24.5687 21.4514 26.2087 22.7214 27.4987 24.4814C29.2687 26.9114 30.1387 29.6814 30.5487 32.6214C30.5887 32.8814 30.5587 33.1614 30.4787 33.4114C30.3987 33.6514 30.2587 33.9314 30.0487 34.0514C28.9687 34.6914 27.8387 34.9714 26.6387 34.3714C26.2787 34.1914 25.9187 34.0314 25.5487 33.8814C23.4987 33.0514 22.2787 31.4414 21.4587 29.4714C21.2087 28.8614 21.0587 28.2014 20.8087 27.5914C19.7587 25.0414 18.0487 23.2414 15.2287 22.7014C15.1687 22.6914 15.0987 22.6814 15.0387 22.6614C14.6987 22.5514 14.4687 22.3314 14.3987 21.9714C14.3387 21.6614 14.5087 21.3314 14.8187 21.1414C16.1687 20.3114 17.6587 20.0514 19.2187 20.1014C19.2887 20.1014 19.3487 20.1214 19.6287 20.1514V20.1414ZM19.3787 21.6014C19.2187 21.6014 18.9587 21.6014 18.6887 21.6014C18.6287 21.6014 18.5587 21.6314 18.4987 21.6514C18.4387 21.6814 18.3587 21.7114 18.3487 21.7514C18.3387 21.8714 18.3187 22.0314 18.3787 22.1114C18.5387 22.3114 18.7387 22.5014 18.9387 22.6714C20.7587 24.2014 22.1887 25.9814 22.7187 28.3714C22.7587 28.5614 22.8287 28.7514 22.8987 28.9414C23.7587 31.1414 25.3887 32.5014 27.6287 33.1614C27.8187 33.2214 28.0187 33.2214 28.2187 33.2414C28.7087 33.2714 29.1287 32.7914 28.9887 32.3314C28.8087 31.6914 28.5287 31.0814 28.4087 30.4314C28.0587 28.7014 27.3087 27.1814 26.3787 25.7014C25.2287 23.8714 23.6087 22.7014 21.6287 21.9514C20.9387 21.6914 20.2387 21.5014 19.3787 21.6014Z" fill="#0E51A0"/>
<path d="M81.3594 54.4713C81.7094 54.0413 82.0494 53.6613 82.3594 53.2413C83.4094 51.8113 84.7494 50.7613 86.4094 50.1213C86.9694 49.9013 87.5194 49.6813 88.0794 49.4713C90.0194 48.7513 91.8794 49.0713 93.6694 49.9513C93.9594 50.0913 94.2294 50.3213 94.4594 50.5513C94.8794 50.9713 95.3094 51.4013 95.6594 51.8813C96.3794 52.8613 97.1894 53.6913 98.3294 54.2113C99.3694 54.6913 99.8794 55.6313 100.119 56.7213C100.209 57.1213 100.169 57.5113 100.009 57.8913C99.8394 58.3013 99.1994 58.4613 98.8094 58.1813C98.3094 57.8313 97.9494 57.3613 97.5994 56.8713C97.2094 56.3313 96.7894 55.8213 96.3794 55.3013C96.0594 54.8913 95.5994 54.7513 95.1294 54.8813C94.1694 55.1313 93.1894 55.3013 92.2994 55.8013C90.7894 56.6613 89.1394 57.2013 87.5194 57.8113C85.7494 58.4713 83.9694 58.2613 82.2694 57.5413C80.9194 56.9813 80.0794 55.8513 79.4894 54.5413C79.4294 54.4013 79.5094 54.1413 79.6094 54.0013C79.7794 53.7713 80.0794 53.7013 80.3294 53.8213C80.6794 53.9913 80.9994 54.2313 81.3594 54.4613V54.4713ZM82.0794 55.3613C82.1094 55.4313 82.1094 55.5213 82.1594 55.5513C83.4594 56.4813 84.8594 56.9313 86.4594 56.5013C87.6794 56.1713 88.8894 55.8013 90.0094 55.2013C91.3594 54.4713 92.7494 53.8513 94.2394 53.4613C94.6194 53.3613 94.7394 52.9913 94.4994 52.7013C93.9494 52.0413 93.4494 51.2813 92.6194 50.9513C91.3694 50.4513 90.0694 50.2113 88.7194 50.5713C86.6494 51.1113 84.9694 52.2213 83.6494 53.8913C83.4394 54.1513 83.2894 54.4613 83.0494 54.6813C82.7594 54.9413 82.4094 55.1413 82.0894 55.3613H82.0794Z" fill="#0E51A0"/>
<path d="M22.8289 75.9715C24.4989 75.9815 25.8289 76.3515 27.0489 77.1015C27.2989 77.2515 27.3989 77.4915 27.3289 77.7815C27.2589 78.0915 26.8389 78.3715 26.5689 78.3015C26.5089 78.2815 26.4389 78.2815 26.3789 78.2515C24.8389 77.4215 23.1589 77.5415 21.4989 77.5415C20.8789 77.5415 20.2989 77.6815 19.7889 78.0115C17.0189 79.8415 14.6689 82.0415 13.4789 85.2515C13.4389 85.3515 13.4589 85.5315 13.5289 85.6115C13.5989 85.6915 13.7689 85.7315 13.8789 85.7015C14.6489 85.4915 15.4189 85.2715 16.1789 85.0215C17.1589 84.6915 18.1389 84.7015 19.1189 85.0115C19.2489 85.0515 19.3689 85.0915 19.4989 85.1215C21.2389 85.6215 20.8589 85.7115 22.6589 84.6915C23.2289 84.3715 23.6989 83.8815 24.2189 83.4615C24.8689 82.9415 25.2189 82.2315 25.4589 81.4515C25.6389 80.8815 25.7989 80.3015 26.0089 79.7415C26.0689 79.5715 26.2589 79.4315 26.4189 79.3315C26.4989 79.2815 26.709 79.2915 26.7689 79.3615C26.889 79.5015 26.9989 79.6915 27.0289 79.8715C27.2289 81.1715 26.5289 83.1715 25.5789 84.0615C24.3989 85.1715 23.0589 86.0015 21.5389 86.5715C20.8189 86.8415 20.1189 86.8715 19.3989 86.6015C19.1489 86.5015 18.9089 86.4015 18.6589 86.3015C17.8189 85.9715 16.9589 85.9815 16.1089 86.2415C14.3889 86.7615 13.0089 87.7315 12.0489 89.2815C11.8789 89.5615 11.7089 89.8515 11.5189 90.1215C11.3489 90.3515 10.9089 90.4215 10.5989 90.3015C10.3089 90.1815 10.0889 89.8015 10.1389 89.4915C10.1689 89.2915 10.1889 89.0915 10.2689 88.9115C10.9289 87.3115 11.6889 85.7515 12.2389 84.1215C12.6489 82.8715 13.4189 81.8815 14.1989 80.9215C15.4189 79.4315 16.8589 78.1315 18.4989 77.0715C19.1789 76.6315 19.8689 76.3115 20.7089 76.2415C21.4989 76.1815 22.2589 75.8515 22.8389 75.9815L22.8289 75.9715Z" fill="#0E51A0"/>
<path d="M72.5193 34.0115C71.6693 33.9615 71.1293 33.9415 70.6093 33.8915C70.3193 33.8615 70.1593 33.6615 70.0893 33.3815C69.7093 31.8015 69.7793 30.2215 70.0393 28.6315C70.3093 26.9815 70.7993 25.4015 71.5793 23.9315C72.7693 21.7015 74.4293 19.9415 76.7693 18.8815C77.0693 18.7415 77.3793 18.6215 77.6693 18.4615C79.0893 17.6715 80.5893 17.7015 82.1293 17.9415C82.5493 18.0115 82.7793 18.5115 82.5493 18.8515C82.3193 19.1815 82.0693 19.4815 81.8293 19.8015C80.6193 21.4315 79.9093 23.2815 79.5793 25.2715C79.4493 26.0615 79.3693 26.8515 79.2793 27.6415C78.9693 30.4715 77.4393 32.4115 74.9393 33.6515C74.7093 33.7715 74.4393 33.8415 74.1793 33.8715C73.5193 33.9415 72.8593 33.9715 72.5193 34.0015V34.0115ZM71.3193 30.6515C71.3493 31.1415 71.3593 31.5415 71.3893 31.9415C71.4293 32.3815 71.7393 32.6615 72.1993 32.6415C73.5093 32.6115 74.7593 32.1915 75.6693 31.3015C76.8093 30.1815 77.6993 28.8615 77.6693 27.0915C77.6393 25.1315 78.2093 23.2715 79.0193 21.5015C79.2893 20.8915 79.6493 20.3315 79.9593 19.7315C80.0493 19.5615 80.1093 19.3415 79.9093 19.2015C79.8093 19.1315 79.6593 19.0815 79.5393 19.1015C79.0793 19.1815 78.5893 19.2215 78.1893 19.4115C75.9093 20.5115 74.0493 22.0715 72.8593 24.3615C71.8293 26.3615 71.4193 28.5015 71.3193 30.6315V30.6515Z" fill="#0E51A0"/>
<path d="M84.169 86.1514C84.139 87.0214 84.169 87.8814 84.299 88.7414C84.319 88.8714 84.289 89.0014 84.269 89.1414C84.229 89.4714 83.759 89.8814 83.419 89.8714C83.129 89.8714 82.909 89.7114 82.769 89.4714C82.609 89.1814 82.489 88.8714 82.359 88.5614C81.629 86.8814 80.379 85.7614 78.689 85.0814C77.459 84.5814 76.259 84.0014 75.019 83.5014C73.569 82.9214 72.989 81.8514 73.099 80.3514C73.129 79.8914 73.189 79.4214 73.279 78.9714C73.429 78.2614 73.609 77.5514 73.819 76.8414C73.939 76.4314 74.249 76.1614 74.669 76.0814C76.389 75.7814 78.119 75.7314 79.849 75.9114C80.229 75.9514 80.649 76.0914 80.959 76.3214C81.879 76.9914 82.709 77.7414 83.059 78.9014C83.499 80.3714 84.119 81.7914 84.169 83.3514C84.199 84.2814 84.169 85.2114 84.169 86.1514ZM77.209 77.1514C77.069 77.1714 76.479 77.2414 75.889 77.3214C75.429 77.3814 75.159 77.7014 75.099 78.1014C74.959 78.9514 74.879 79.8114 74.829 80.6614C74.799 81.3114 75.139 81.8214 75.729 82.0914C76.509 82.4514 77.289 82.8114 78.099 83.1014C79.229 83.5114 80.329 83.9614 81.329 84.6214C81.489 84.7314 81.679 84.8014 81.859 84.8814C82.109 85.0014 82.419 84.8514 82.449 84.5714C82.729 82.2214 82.059 80.1014 80.729 78.2014C80.309 77.6014 79.639 77.2414 78.849 77.2214C78.449 77.2214 78.059 77.1814 77.199 77.1414L77.209 77.1514Z" fill="#0E51A0"/>
<path d="M67.6391 103.752C67.5591 103.922 67.5291 104.072 67.4391 104.142C67.2691 104.292 67.0591 104.242 66.8991 104.122C66.6991 103.952 66.4691 103.762 66.3691 103.532C66.0491 102.732 65.7491 101.922 65.5091 101.102C64.8791 98.9115 64.0991 96.7915 63.0391 94.7815C62.9491 94.6015 62.8591 94.4215 62.7791 94.2415C62.6391 93.9115 62.7591 93.5315 63.0491 93.3715C63.3291 93.2115 63.7591 93.2615 63.9691 93.5115C64.1791 93.7615 64.4191 94.0215 64.5391 94.3215C65.1691 95.9315 65.7991 97.5515 66.3591 99.1915C66.7691 100.382 67.0891 101.612 67.4291 102.822C67.5191 103.142 67.5691 103.472 67.6291 103.752H67.6391Z" fill="#0E51A0"/>
<path d="M31.3491 97.1315C31.2091 97.0415 31.0491 97.0015 31.0191 96.9015C30.8591 96.4315 31.0291 95.9615 31.1991 95.5615C32.0091 93.6615 32.4291 91.6315 33.1191 89.7015C33.2491 89.3315 33.4591 88.9815 33.7091 88.6715C33.8691 88.4715 34.1491 88.3815 34.4291 88.4915C34.7191 88.6015 34.8391 88.8615 34.8191 89.1215C34.7891 89.5115 34.7091 89.9115 34.5891 90.2815C34.2591 91.3615 33.9091 92.4315 33.5391 93.5015C33.1191 94.6915 32.5791 95.8315 31.8291 96.8615C31.7291 97.0015 31.4991 97.0515 31.3491 97.1415V97.1315Z" fill="#0E51A0"/>
<path d="M37.4794 23.6115C37.3994 23.8715 37.2794 24.0915 37.0194 24.2215C36.7894 24.3415 36.3994 24.3115 36.2994 24.1215C36.1394 23.8315 35.9594 23.5515 35.8594 23.2415C35.4594 21.9515 34.6894 20.8815 33.9294 19.7915C33.4794 19.1415 33.0394 18.4715 32.5494 17.8515C32.1194 17.3115 31.9794 16.6715 31.7794 16.0515C31.7694 16.0115 31.8294 15.9115 31.8694 15.9015C31.9794 15.8715 32.1494 15.8115 32.2194 15.8615C32.4894 16.0415 32.7794 16.2315 32.9794 16.4915C34.0494 17.8415 35.0794 19.2215 36.1594 20.5515C36.7994 21.3515 37.0594 22.3115 37.4294 23.2215C37.4794 23.3415 37.4494 23.4815 37.4594 23.6115H37.4794Z" fill="#0E51A0"/>
<path d="M64.4794 18.2416C64.5394 20.1316 63.4894 21.5916 61.4494 22.0916C61.3494 22.1116 61.1794 22.0416 61.1094 21.9516C61.0494 21.8716 61.0394 21.6816 61.1094 21.6016C61.3894 21.2416 61.6794 20.8616 62.0194 20.5516C62.9994 19.6516 63.1794 18.5216 62.9994 17.2816C62.8794 16.4316 62.7094 15.5916 62.5794 14.7416C62.5494 14.5616 62.6094 14.3516 62.6394 14.1716C62.6794 13.9516 63.1294 13.8016 63.2994 13.9516C63.4394 14.0816 63.6194 14.2116 63.6894 14.3816C64.0994 15.3316 64.4894 17.2716 64.4794 18.2516V18.2416Z" fill="#0E51A0"/>
<path d="M81.979 38.2514C81.779 38.2014 81.579 38.1814 81.409 38.0914C81.309 38.0414 81.2591 37.8914 81.2091 37.7814C81.1891 37.7414 81.249 37.6514 81.289 37.6214C81.579 37.4614 81.849 37.2514 82.159 37.1714C82.999 36.9614 83.849 36.8214 84.689 36.6514C85.079 36.5714 85.4791 36.5114 85.8491 36.3914C86.6391 36.1214 87.229 35.6114 87.539 34.8214C87.659 34.5114 87.739 34.1914 87.879 33.8914C88.089 33.4114 88.539 33.0814 88.749 33.2214C89.159 33.4814 89.129 33.9414 89.079 34.2914C88.939 35.3014 88.5091 36.1914 87.6691 36.8114C86.9691 37.3214 86.209 37.7414 85.329 37.8514C84.209 37.9914 83.089 38.1214 81.969 38.2514H81.979Z" fill="#0E51A0"/>
<path d="M9.59961 70.4113C9.24961 70.3613 9.01961 70.3213 9.02961 70.0813C9.02961 69.9113 9.14961 69.6813 9.28961 69.5913C9.79961 69.2713 10.3096 68.9513 10.8596 68.7213C12.7696 67.9313 14.7496 67.3613 16.7496 66.8713C17.0596 66.7913 17.4096 66.8213 17.7296 66.8813C17.8896 66.9113 18.0796 67.1213 18.1196 67.2813C18.1596 67.4313 18.0696 67.6713 17.9596 67.8113C17.6996 68.1313 17.3296 68.2713 16.9296 68.3713C15.3196 68.7913 13.7096 69.2113 12.1096 69.6513C11.5996 69.7913 11.1096 70.0213 10.5996 70.1813C10.2196 70.2913 9.82961 70.3513 9.57961 70.4013L9.59961 70.4113Z" fill="#0E51A0"/>
<path d="M84.1096 67.9415C84.8696 67.7815 85.7496 68.1615 86.6596 68.3415C88.0896 68.6315 89.5096 68.9815 90.9296 69.3115C91.0196 69.3315 91.0796 69.5015 91.1196 69.6115C91.1796 69.7615 91.0896 69.8515 90.9396 69.9215C90.3596 70.1615 89.7496 70.1715 89.1696 70.0815C86.9896 69.7715 84.8196 69.4115 82.6496 69.0515C82.4596 69.0215 82.2896 68.8915 82.1196 68.7815C82.0696 68.7515 82.0196 68.6615 82.0296 68.6115C82.0596 68.4915 82.0896 68.3515 82.1696 68.2815C82.3296 68.1615 82.5096 68.0515 82.6996 68.0215C83.0896 67.9615 83.4996 67.9615 84.0996 67.9215L84.1096 67.9415Z" fill="#0E51A0"/>
<path d="M10.4194 41.8315C10.8394 41.8815 11.2394 41.9115 11.6294 41.9815C12.6694 42.1915 13.6994 42.4115 14.7294 42.6515C15.2394 42.7715 15.7394 42.9515 16.2394 43.1215C16.5094 43.2115 16.6495 43.4415 16.6795 43.7215C16.6995 43.9815 16.3195 44.3015 15.9995 44.3315C15.8695 44.3315 15.7294 44.3715 15.6094 44.3515C13.5894 44.0115 11.5994 43.5415 9.66945 42.8415C9.60945 42.8215 9.53945 42.7815 9.50945 42.7315C9.43945 42.6315 9.31945 42.4815 9.34945 42.4015C9.41945 42.2315 9.53945 42.0215 9.68945 41.9515C9.91945 41.8515 10.1994 41.8615 10.4394 41.8215L10.4194 41.8315Z" fill="#0E51A0"/>
</svg>
