<svg width="97" height="102" viewBox="0 0 97 102" fill="none" xmlns="http://www.w3.org/2000/svg">
<path d="M84.2213 14.0319C84.2913 14.2019 84.3113 14.3819 84.3813 14.4019C84.6913 14.5119 85.0113 14.5919 85.3313 14.6519C86.3913 14.8419 87.3913 15.1919 88.3213 15.7419C88.9513 16.1119 89.6213 16.4119 90.2713 16.7419C90.9113 17.0719 91.0113 17.7119 90.4313 18.1919C89.4913 18.9619 88.7113 19.8719 87.9313 20.7819C87.1213 21.7219 87.0413 22.0419 88.2513 22.8119C90.1613 24.0319 92.0713 25.2319 94.0013 26.4219C94.7913 26.9119 95.6113 27.3619 96.4113 27.8519C96.6613 28.0019 96.7713 28.2619 96.7013 28.5419C96.6413 28.8119 96.4413 29.0219 96.1613 29.0719C95.3713 29.2119 94.5913 29.3119 93.7813 29.2819C91.7213 29.2019 89.6513 29.1819 87.5813 29.1419C87.5213 29.1419 87.4113 29.1819 87.4013 29.2119C87.4013 29.3319 87.3913 29.4719 87.4413 29.5719C87.5013 29.6819 87.6213 29.7719 87.7313 29.8419C89.6113 31.1319 91.1913 32.7719 92.9313 34.2319C93.4613 34.6719 93.3013 35.4019 92.6213 35.6419C91.8713 35.9019 91.0913 36.1419 90.3113 36.2719C88.9913 36.4819 87.6613 36.5719 86.3413 36.7319C86.0113 36.7719 85.6913 36.8519 85.3813 36.9619C85.3113 36.9819 85.2613 37.1919 85.2813 37.3019C85.3013 37.4219 85.3913 37.5519 85.4913 37.6319C86.0713 38.0719 86.6313 38.5719 87.2713 38.9219C90.8013 40.8619 93.4713 43.7119 95.8513 46.8919C95.9313 46.9919 95.9613 47.1319 96.0213 47.2519C96.1513 47.5319 95.9713 47.9619 95.6913 48.1119C95.2013 48.3719 94.6713 48.4619 94.1413 48.4419C93.3413 48.4219 92.5213 48.4219 91.7513 48.2419C89.4513 47.7019 87.1313 47.5819 84.7913 47.6419C84.3313 47.6519 83.8613 47.6419 83.4113 47.6419C83.4113 47.8119 83.3613 47.9919 83.4113 48.0519C84.1313 48.8419 84.8513 49.6219 85.5913 50.3819C87.3613 52.1919 89.1513 53.9919 90.9313 55.7919C92.0213 56.8919 92.8013 58.2119 93.5413 59.5619C93.8213 60.0719 93.5913 60.6219 93.0613 60.8919C92.6913 61.0819 92.3013 61.1519 91.9013 61.0719C91.0513 60.9119 90.2013 60.7419 89.3613 60.5319C88.3913 60.2919 87.4313 60.0119 86.4613 59.7619C86.3313 59.7319 86.2013 59.7419 86.0613 59.7419C85.7313 59.7219 85.4113 60.1519 85.5613 60.4319C85.7513 60.7819 85.9513 61.1219 86.1813 61.4419C87.0813 62.6819 88.0513 63.8819 88.9013 65.1519C89.8713 66.5919 90.7413 68.0919 91.6513 69.5719C92.1013 70.3119 92.5513 71.0519 92.9813 71.8019C93.1713 72.1319 93.0613 72.4519 92.8513 72.7319C92.6313 73.0119 92.3313 73.1719 91.9813 73.0919C91.6613 73.0219 91.3213 72.9118 91.0513 72.7419C89.2213 71.5719 87.1313 71.0819 85.1113 70.3919C82.2713 69.4219 79.3413 68.7719 76.4013 68.1819C76.2013 68.1419 75.9913 68.1419 75.9013 68.3419C75.8613 68.4319 75.9513 68.5919 76.0113 68.7019C76.0813 68.8119 76.1813 68.9118 76.2813 68.9919C79.1413 71.3018 81.0813 74.3419 82.8713 77.4719C83.9613 79.3819 84.7313 81.4619 85.4513 83.5419C85.7313 84.3519 85.8713 85.2219 86.0213 86.0719C86.0813 86.3919 86.0313 86.7419 85.9513 87.0519C85.8113 87.5319 85.4813 87.8619 84.9713 87.9419C84.6413 87.9919 84.3013 88.0219 83.9813 87.9619C82.4713 87.7219 80.9213 87.6419 79.4613 87.1219C78.6813 86.8419 77.8913 86.8219 77.0913 86.8819C76.6213 86.9118 76.4313 87.2419 76.5813 87.7319C76.8613 88.6219 77.1813 89.5019 77.4413 90.4019C78.1713 92.9119 78.5113 95.4818 78.5213 98.1019C78.5213 98.5719 78.4713 99.0319 78.4513 99.5019C78.4213 100.212 78.0413 100.762 77.5913 101.262C77.3013 101.592 76.6313 101.582 76.3213 101.252C76.1413 101.062 75.9413 100.862 75.8213 100.632C74.4713 97.9118 72.5513 95.6119 70.6113 93.3119C69.6613 92.1918 68.7013 91.0819 67.7813 89.9419C67.0613 89.0519 66.2313 88.3019 65.3613 87.5719C64.1313 86.5519 62.9513 85.4619 61.7513 84.4019C59.8013 82.6719 57.8113 81.0019 55.7013 79.4719C53.7013 78.0119 51.5313 76.8419 49.2813 75.8319C46.4813 74.5819 43.6013 73.5219 40.8813 72.0919C40.7613 72.0319 40.6313 72.0019 40.5113 71.9519C40.3313 71.8819 40.1013 71.7819 39.9913 71.9719C39.9013 72.1119 39.9213 72.3519 39.9613 72.5319C40.0913 73.2519 40.3013 73.9619 40.3813 74.6919C40.5113 75.7519 39.7813 76.5119 38.6913 76.4119C37.9013 76.3419 37.0913 76.2019 36.3513 75.9419C34.2013 75.2019 32.1013 74.3619 30.2313 73.0219C29.2013 72.2819 28.1313 71.6019 27.0813 70.9019C26.7513 70.6819 26.3913 70.4919 26.0513 70.2919C25.3613 69.8919 24.6613 69.8819 23.9613 70.2919C23.3913 70.6319 22.7913 70.9419 22.2613 71.3319C21.1813 72.1219 20.1113 72.9219 19.0913 73.7719C18.4313 74.3219 17.7613 74.9019 17.2413 75.5819C16.1713 76.9719 14.8413 78.0818 13.6113 79.3119C12.8913 80.0319 12.0013 80.4919 10.9413 80.5219C10.3813 80.5319 9.88133 80.3919 9.51133 79.9419C8.20133 78.3619 7.35132 76.6119 7.39132 74.4819C7.43132 72.1119 7.91133 69.8719 8.81133 67.6819C9.27133 66.5819 9.49132 65.3819 9.80132 64.2219C9.97132 63.5819 9.75133 63.0319 9.29133 62.5919C9.05133 62.3619 8.77132 62.1819 8.50132 61.9819C7.64132 61.3419 6.79133 60.7019 5.93133 60.0719C3.97133 58.6419 2.41132 56.8319 0.97132 54.9019C0.69132 54.5319 0.491323 54.1019 0.271323 53.6919C-0.218677 52.7319 -0.0486686 51.8919 0.811331 51.2119C2.02133 50.2619 3.41132 49.8819 4.94132 50.0619C5.54132 50.1319 6.14132 50.2119 6.71133 50.3619C8.45133 50.8419 10.2713 50.9219 11.9713 51.5719C12.1513 51.6419 12.3613 51.6719 12.5613 51.6819C12.7813 51.6819 12.9413 51.5419 12.9913 51.3419C13.0313 51.1519 13.0413 50.9419 13.0013 50.7519C12.6313 48.9619 12.7713 47.1719 12.9713 45.3719C13.0513 44.6519 13.0413 43.9119 13.0213 43.1819C12.9713 41.3419 13.3713 39.6119 14.0813 37.9319C14.3213 37.3619 14.7113 36.9319 15.2713 36.6319C16.0613 36.2019 16.7913 36.2019 17.4813 36.8319C17.6313 36.9719 17.7713 37.1119 17.9313 37.2319C18.1313 37.3919 18.4713 37.3419 18.6213 37.1119C18.9213 36.6719 19.2613 36.2419 19.4713 35.7619C20.5613 33.1619 22.1113 30.8419 23.6413 28.5019C23.8913 28.1119 24.1013 27.6919 24.3313 27.2819C25.8813 24.5519 27.4513 21.8419 29.3213 19.3319C29.5213 19.0719 29.7513 18.8119 30.0113 18.6219C30.4513 18.3019 30.8013 17.9119 31.1013 17.4619C31.2113 17.3019 31.3313 17.0919 31.5013 17.0319C32.3613 16.7319 32.8813 16.0119 33.5313 15.4519C35.8213 13.5019 38.2413 11.7319 40.8513 10.2319C42.2313 9.43186 43.6913 8.75186 45.1313 8.06186C47.3513 6.99186 49.5713 5.92186 51.8213 4.91186C54.9313 3.51186 58.1013 2.27186 61.4113 1.46186C65.0413 0.571857 68.7313 -0.0381429 72.4813 0.00185708C73.5513 0.0118571 74.6113 0.131857 75.6813 0.161857C77.8813 0.211857 80.0813 0.231857 82.2813 0.261857C82.4113 0.261857 82.5513 0.261857 82.6813 0.261857C83.3213 0.291857 83.6813 0.771857 83.4713 1.33186C82.9713 2.71186 82.4013 4.06186 81.6513 5.33186C81.4813 5.62186 81.3113 5.90186 81.1513 6.20186C80.7213 7.02186 80.8513 7.38186 81.7713 7.70186C84.1713 8.52186 86.4913 9.52186 88.8413 10.4619C89.6413 10.7819 90.4813 11.0119 91.3013 11.2819C91.5813 11.3719 91.7513 11.5719 91.7813 11.8519C91.8113 12.1319 91.5113 12.5819 91.2813 12.6619C91.0913 12.7219 90.9013 12.7819 90.7113 12.8119C90.1213 12.9019 89.5313 13.0119 88.9313 13.0519C87.3213 13.1619 85.8513 13.8819 84.2513 14.0719L84.2213 14.0319ZM74.3113 1.34186C74.3113 1.34186 74.3113 1.30186 74.3113 1.28186C72.9113 1.33186 71.5113 1.37186 70.1213 1.42186C69.0513 1.46186 67.9713 1.42186 66.9213 1.58186C65.0113 1.88186 63.1013 2.24186 61.2313 2.70186C57.8513 3.53186 54.6213 4.80186 51.4613 6.24186C48.9113 7.40186 46.4313 8.69186 43.9013 9.89186C40.6813 11.4119 37.7713 13.3919 35.0713 15.6919C33.5913 16.9519 32.2813 18.3719 30.8713 19.7019C29.4413 21.0519 28.3913 22.6619 27.4213 24.3319C26.4413 26.0019 25.4913 27.6819 24.5113 29.3519C23.3913 31.2419 22.1013 33.0319 21.1913 35.0519C20.7313 36.0819 20.2113 37.0919 19.7113 38.1119C19.3713 38.8119 19.2713 39.4619 19.7313 40.1819C20.9113 42.0519 21.8113 44.0519 22.5213 46.1419C22.6513 46.5119 22.8713 46.8619 23.0913 47.1919C23.2013 47.3619 23.4713 47.4119 23.6113 47.2519C24.0413 46.7619 24.7913 46.5719 24.9413 45.8219C26.4413 43.6919 27.9813 41.6019 30.0113 39.9319C31.8713 38.4019 33.3713 36.5119 34.9713 34.7319C36.0413 33.5319 37.1613 32.4019 38.4513 31.4419C38.9313 31.0819 39.4113 30.7219 39.8713 30.3419C41.4613 29.0319 42.9713 27.6219 44.6213 26.3719C47.1313 24.4819 49.6413 22.6119 52.5013 21.2819C53.6513 20.7519 54.7813 20.1819 55.9413 19.6619C56.4813 19.4219 57.0513 19.1819 57.6313 19.0719C58.3713 18.9319 59.0213 18.6219 59.7013 18.3619C60.1913 18.1719 60.6913 17.9819 61.2013 17.8319C63.9513 17.0219 66.6913 16.2019 69.4513 15.4519C71.5113 14.8919 73.5813 14.3919 75.6713 13.9519C76.8413 13.7019 78.0513 13.6319 79.2413 13.4619C81.5513 13.1419 83.8413 12.6819 86.1113 12.1019C86.4913 12.0019 86.8513 11.8219 87.2113 11.6519C87.2513 11.6319 87.2513 11.3619 87.2113 11.3319C86.6213 11.0319 86.0413 10.7019 85.4113 10.4719C84.2813 10.0619 83.1313 9.72186 81.9913 9.34186C81.0413 9.02186 80.1113 8.65186 79.0913 8.64186C79.0313 8.64186 78.9613 8.61186 78.9013 8.59186C78.5313 8.50186 78.2513 7.97186 78.4113 7.63186C78.4913 7.45186 78.5713 7.26186 78.7013 7.11186C79.8013 5.82186 80.3413 4.22186 81.1013 2.74186C81.1613 2.62186 81.1713 2.48186 81.2113 2.36186C81.3713 1.85186 81.2013 1.55186 80.7113 1.52186C80.3113 1.50186 79.9113 1.51186 79.5113 1.50186C77.7813 1.45186 76.0513 1.40186 74.3113 1.35186V1.34186ZM74.1213 47.3319C73.1213 47.4219 72.5813 47.4619 72.0513 47.5219C71.0613 47.6419 70.0713 47.7919 69.0813 47.9019C68.0913 48.0119 67.0913 48.0919 66.1013 48.1919C64.6413 48.3319 63.1813 48.4919 61.7213 48.6119C59.1313 48.8219 56.5313 48.9819 53.9513 49.2119C52.7613 49.3219 51.5413 49.4219 50.3913 49.7319C47.3713 50.5419 44.2713 51.1219 41.4813 52.6119C40.6513 53.0519 39.7213 53.1819 38.8913 53.6319C37.2013 54.5619 35.4413 55.3619 33.7013 56.2119C33.0413 56.5319 32.4213 56.9319 31.9013 57.4519C31.7613 57.5919 31.6713 57.7919 31.7913 57.9919C31.9313 58.2219 32.0713 58.4519 32.2513 58.6419C33.6613 60.1619 34.8913 61.8219 35.9913 63.5719C36.1313 63.8019 36.2913 64.0119 36.4413 64.2319C36.6413 64.5419 36.9313 64.6619 37.2913 64.6519C37.6213 64.6419 37.9613 64.6319 38.2913 64.6019C41.9413 64.2419 45.6113 64.2219 49.2813 64.2519C51.8113 64.2719 54.3413 64.3319 56.8613 63.9719C57.3213 63.9119 57.7913 63.9319 58.2613 63.9219C61.8113 63.8719 65.3113 64.2618 68.7913 64.9219C69.5713 65.0719 70.3813 65.1319 71.1513 65.3119C74.0713 65.9719 76.9913 66.6519 79.9113 67.3219C80.4913 67.4519 81.1013 67.5019 81.6713 67.6619C83.3313 68.1319 84.9913 68.6419 86.6513 69.1319C87.4813 69.3718 88.3113 69.6219 89.1513 69.8319C89.3013 69.8719 89.5213 69.7619 89.6613 69.6519C89.7213 69.6119 89.6913 69.3819 89.6413 69.2819C88.6513 67.4719 87.5713 65.7019 86.2413 64.1119C85.0013 62.6319 83.7413 61.1719 82.4913 59.6919C82.1513 59.2819 82.1013 58.7719 82.3313 58.4019C82.5713 58.0119 82.9713 57.9019 83.3713 57.9519C85.0113 58.1419 86.7013 57.9919 88.2913 58.6419C88.9013 58.8919 89.5513 59.0719 90.1713 59.2919C90.4913 59.4019 90.8113 59.4419 91.1513 59.3519C91.3113 59.3119 91.4113 59.1919 91.3413 59.0519C90.8713 58.1719 90.4013 57.3019 89.6913 56.5819C87.7613 54.6519 85.8413 52.7019 83.9113 50.7719C83.3913 50.2519 82.8513 49.7519 82.3013 49.2719C81.8513 48.8819 81.4113 48.3719 80.7613 48.4519C80.0213 48.5419 79.8013 47.7619 79.2113 47.6619C79.1413 47.6519 79.0813 47.6319 79.0113 47.6319C77.2213 47.6319 75.4513 47.0619 74.1113 47.3319H74.1213ZM8.88132 73.7619C8.91132 74.3519 8.93132 74.6219 8.94132 74.8919C9.01132 76.2719 9.49132 77.4919 10.4113 78.5219C10.8313 78.9919 11.3013 79.0719 11.8213 78.7219C13.1013 77.8619 14.1813 76.7819 15.1813 75.6119C15.9213 74.7519 16.6513 73.8719 17.4913 73.1219C18.9313 71.8319 20.4813 70.6719 22.1113 69.6319C22.7813 69.2019 23.5013 68.8319 24.2113 68.4819C24.8413 68.1719 25.5013 68.1719 26.1313 68.5319C26.7713 68.8919 27.4513 69.2019 28.0213 69.6519C30.0613 71.2919 32.3213 72.5619 34.6613 73.7019C35.7013 74.2119 36.7913 74.4419 37.8813 74.7119C38.0013 74.7419 38.1513 74.7219 38.2713 74.6819C38.4613 74.6119 38.6513 74.5019 38.6213 74.2619C38.5813 73.9319 38.5513 73.5919 38.4413 73.2919C37.7413 71.3519 37.0413 69.4118 36.2713 67.4919C36.0513 66.9519 35.5613 66.5219 35.3113 65.9919C35.0613 65.4619 34.9713 64.8619 34.6313 64.3419C33.5713 62.7219 32.4913 61.1219 31.0113 59.8419C30.6613 59.5419 30.3713 59.1619 30.1113 58.7719C29.4713 57.8119 29.6413 56.8619 30.5713 56.1419C30.7813 55.9819 31.0113 55.8419 31.2313 55.6919C32.2913 55.0019 33.3613 54.3219 34.4113 53.6119C35.8513 52.6419 37.2913 51.6819 38.4413 50.3519C38.9613 49.7419 39.5213 49.1619 40.0313 48.5519C40.6713 47.7819 41.2313 46.9519 41.6613 46.0419C41.9213 45.4919 41.6813 44.9819 41.0913 44.7719C40.2013 44.4419 39.2713 44.3619 38.3313 44.4419C37.2013 44.5419 36.0713 44.6519 34.9413 44.7619C32.6613 44.9719 30.4813 45.5419 28.4513 46.6319C27.3913 47.2019 26.3213 47.7219 25.2413 48.2619C24.7013 48.5319 24.1713 48.8219 23.6113 49.0119C22.1813 49.5119 21.7813 49.0119 21.4813 48.0119C21.4013 47.7619 21.3013 47.5119 21.2413 47.2519C20.8613 45.6819 20.2213 44.2119 19.4513 42.8119C18.6513 41.3519 17.8113 39.9119 16.9713 38.4719C16.8413 38.2519 16.6013 38.1019 16.3913 37.9419C16.1413 37.7519 15.6713 37.7919 15.4813 38.0519C15.2513 38.3719 14.9913 38.6919 14.8613 39.0619C14.5413 39.9419 14.3413 40.8419 14.3113 41.7919C14.2413 44.0619 14.0913 46.3219 14.0513 48.5919C14.0313 49.8519 13.9913 51.1219 14.5813 52.3119C14.6913 52.5319 14.7213 52.8419 14.6613 53.0719C14.5413 53.5319 14.4613 53.9819 14.5013 54.4519C14.5013 54.5119 14.4813 54.5919 14.4413 54.6419C14.3613 54.7419 14.2813 54.8719 14.1713 54.8919C14.0713 54.9219 13.8713 54.8619 13.8413 54.7819C13.5213 53.9819 12.9613 53.5419 12.1213 53.3119C9.81133 52.6719 7.49132 52.0419 5.13132 51.6519C4.48132 51.5419 3.80132 51.5919 3.14132 51.6119C2.66132 51.6319 2.25133 51.8619 1.93133 52.2319C1.75133 52.4419 1.66132 52.7019 1.77132 52.9719C2.17132 53.9719 2.77132 54.8719 3.52132 55.6219C5.03132 57.1219 6.52132 58.6519 8.30132 59.8619C9.17132 60.4519 10.0613 61.0619 10.7813 61.8619C11.3713 62.5119 11.6113 63.1819 11.3213 64.0519C10.8013 65.5619 10.4013 67.1119 9.84133 68.6119C9.18133 70.3919 9.00133 72.2319 8.87133 73.7719L8.88132 73.7619ZM89.4013 27.4719C90.1413 27.5319 91.1413 27.6119 92.1413 27.6819C92.2413 27.6819 92.4013 27.5819 92.4413 27.4919C92.4713 27.4119 92.4113 27.2219 92.3313 27.1719C90.6413 26.1119 88.9413 25.0419 87.2313 24.0119C86.6013 23.6319 85.9813 23.2519 85.4813 22.6919C85.2113 22.3919 85.1313 21.9219 85.3613 21.5819C85.9313 20.7619 86.5313 19.9619 87.1413 19.1719C87.4213 18.8019 87.7713 18.4919 88.0713 18.1319C88.2913 17.8719 88.2213 17.4719 87.9213 17.2619C87.6513 17.0719 87.3713 16.8719 87.0713 16.7519C85.6413 16.1919 84.1613 15.7719 82.6313 15.6319C81.7713 15.5519 80.9213 15.4519 80.0613 15.2919C78.8713 15.0719 77.6713 15.1019 76.4813 15.3219C75.1713 15.5719 73.8813 15.9119 72.5713 16.1419C70.7913 16.4519 69.1013 17.0819 67.3713 17.5619C65.1213 18.1819 62.8413 18.7019 60.6613 19.5419C59.5413 19.9719 58.4013 20.3419 57.2713 20.7619C55.8313 21.2919 54.3813 21.7919 53.1013 22.6619C52.7713 22.8819 52.4113 23.0719 52.0513 23.2419C49.3613 24.4719 47.0013 26.2219 44.7313 28.0819C42.5113 29.9019 40.4413 31.8919 38.1813 33.6519C37.7613 33.9819 37.3613 34.3519 37.0413 34.7719C35.6013 36.7119 33.7313 38.2419 32.1213 40.0119C31.1313 41.0919 30.0613 42.1019 29.0213 43.1319C28.4413 43.7019 27.9913 44.3519 27.6013 45.0519C27.5213 45.2019 27.5513 45.3219 27.7013 45.3819C27.7613 45.4019 27.8313 45.4219 27.8913 45.4019C28.5113 45.1619 29.1213 44.8919 29.7413 44.6819C31.7113 44.0119 33.7413 43.6819 35.8013 43.4219C36.7913 43.2919 37.7913 43.2319 38.7913 43.1419C39.2013 43.1019 39.5713 42.9819 39.8713 42.6819C40.9313 41.6519 42.3513 41.1119 43.4513 40.1419C43.5913 40.0119 43.8013 39.9619 43.9813 39.8819C46.3013 38.8719 48.6113 37.8419 50.7813 36.5319C51.1813 36.2919 51.6113 36.1019 52.0313 35.9019C53.1113 35.3819 54.2013 34.8819 55.2713 34.3319C55.9813 33.9619 56.7013 33.6319 57.4713 33.4019C58.8113 32.9919 60.1213 32.5119 61.4613 32.0919C63.7513 31.3819 66.0113 30.5619 68.3613 30.0519C69.2113 29.8719 70.0813 29.7919 70.9113 29.5519C72.6513 29.0419 74.4413 28.8719 76.2213 28.6819C78.7413 28.4119 81.2413 28.0419 83.7613 27.7719C85.5613 27.5819 87.3413 27.4719 89.4013 27.4719ZM42.3313 43.1819C42.3413 43.2919 42.3313 43.3719 42.3613 43.4019C43.7213 44.6819 43.8613 45.4119 42.7613 47.2719C42.6913 47.3819 42.6013 47.4919 42.5513 47.6119C42.0513 48.6519 41.2013 49.4219 40.5313 50.3419C40.4213 50.4919 40.3813 50.7019 40.3313 50.8919C40.3013 51.0119 40.8013 51.1619 41.0413 51.1019C41.2913 51.0319 41.5513 50.9519 41.7913 50.8519C43.1513 50.3219 44.4413 49.6119 45.9113 49.3619C47.4213 49.1119 48.8013 48.3419 50.3513 48.2219C50.8713 48.1819 51.3813 47.9619 51.9113 47.9019C54.7613 47.5819 57.6213 47.4619 60.4713 47.1519C62.3213 46.9419 64.1913 46.9519 66.0513 46.7219C68.1613 46.4619 70.2913 46.2619 72.4013 46.0319C73.8013 45.8819 75.2013 45.7719 76.5913 45.9619C78.1813 46.1819 79.7613 46.2519 81.3613 46.1319C82.1513 46.0719 82.9513 45.9519 83.7413 46.2119C83.9913 46.2919 84.2713 46.2619 84.5313 46.2619C85.9313 46.2619 87.3313 46.2619 88.7313 46.2419C89.5313 46.2319 90.3313 46.2519 91.1013 46.5119C91.8113 46.7519 92.5213 46.7319 93.2213 46.6219C93.3213 46.2619 93.2213 46.0119 93.0613 45.8019C92.7013 45.3219 92.3413 44.8419 91.9213 44.4119C90.0913 42.5519 88.0613 40.9419 85.8113 39.6119C84.8413 39.0419 83.9013 38.3919 82.9813 37.7419C82.5313 37.4219 82.5513 36.7019 82.9813 36.3419C83.2313 36.1319 83.5113 35.9319 83.8213 35.8219C85.0213 35.3819 86.2613 35.1419 87.5313 35.0819C88.5313 35.0319 89.5213 34.9519 90.5113 34.5419C90.4413 34.3519 90.4313 34.1219 90.3213 34.0019C89.1613 32.7919 87.8713 31.7519 86.5013 30.7919C85.7313 30.2519 84.8713 29.8119 83.9413 29.7219C82.8213 29.6119 81.6913 29.5119 80.5513 29.6619C78.6413 29.9219 76.7213 30.1919 74.7913 30.3119C73.5813 30.3919 72.4713 30.8119 71.2913 30.9619C69.9113 31.1319 68.5513 31.4919 67.1813 31.7919C66.7913 31.8719 66.4113 32.0019 66.0313 32.1219C65.3313 32.3319 64.6313 32.5419 63.9313 32.7619C63.3013 32.9619 62.6513 33.1419 62.0413 33.4019C61.0513 33.8119 60.0413 34.1419 59.0113 34.4019C58.1113 34.6319 57.2413 34.9319 56.4013 35.3819C53.9313 36.7019 51.4313 37.9519 48.9513 39.2319C47.8313 39.8119 46.7413 40.4919 45.5713 40.9519C44.2913 41.4619 43.3213 42.3119 42.3513 43.1819H42.3313ZM47.8313 65.8919C45.1413 65.9719 42.5913 65.9019 40.0813 66.1619C37.5113 66.4219 37.4213 66.0819 38.4613 68.6119C38.5413 68.7919 38.6313 68.9719 38.7013 69.1619C38.8513 69.5619 39.1313 69.8019 39.5313 69.9519C40.3413 70.2519 41.1713 70.5219 41.9313 70.9219C44.4713 72.2618 47.1213 73.3318 49.7413 74.4919C51.3213 75.1918 52.9413 75.8319 54.3913 76.7819C55.3413 77.4019 56.2613 78.0619 57.1713 78.7319C58.0813 79.4019 59.0013 80.0619 59.8613 80.7919C61.4413 82.1219 62.9613 83.5219 64.5313 84.8619C66.9713 86.9419 69.2613 89.1619 71.2313 91.7019C72.6513 93.5419 74.2613 95.2419 75.5313 97.2119C75.7513 97.5518 75.9913 97.8619 76.2513 98.1719C76.3213 98.2519 76.4813 98.3219 76.5913 98.3019C76.6913 98.2819 76.8013 98.1519 76.8313 98.0519C76.8813 97.8619 76.8813 97.6618 76.8813 97.4619C76.8913 94.2919 76.2413 91.2519 75.1113 88.3019C74.8913 87.7419 74.6613 87.1919 74.4713 86.6219C74.3913 86.3719 74.3813 86.1019 74.3513 85.8319C74.3313 85.6419 74.6313 85.2618 74.8213 85.2419C75.2213 85.1918 75.6113 85.1218 76.0113 85.1319C77.1513 85.1319 78.2613 85.3619 79.3613 85.6619C80.6513 86.0119 81.9413 86.3119 83.2813 86.3919C83.9613 86.4319 84.4413 85.8619 84.2413 85.2219C83.6913 83.4419 83.1213 81.6619 82.3013 79.9819C82.0113 79.3819 81.6313 78.8319 81.3513 78.2319C80.6913 76.8319 79.8313 75.5719 78.8313 74.4119C76.9113 72.1919 74.8513 70.1319 72.3913 68.4919C71.9513 68.2019 71.4513 67.9419 71.1113 67.5519C70.5313 66.8919 69.8013 66.6519 69.0113 66.5419C67.2313 66.2719 65.4613 65.9719 63.6513 65.9319C62.5213 65.9119 61.3913 65.7919 60.2613 65.7119C58.8013 65.6119 57.3313 65.5319 55.8713 65.7919C55.5413 65.8519 55.2113 65.8819 54.8813 65.8819C52.4813 65.8819 50.0813 65.8819 47.8513 65.8819L47.8313 65.8919Z" fill="#BC3333"/>
</svg>
