<svg width="49" height="85" viewBox="0 0 49 85" fill="none" xmlns="http://www.w3.org/2000/svg">
<g clip-path="url(#clip0_124_75)">
<path d="M25.4135 9.15611C26.5453 8.4319 27.2655 7.52663 28.1143 6.77656C29.5719 5.48332 31.0809 4.25044 32.6499 3.10377C33.1558 2.73304 33.7131 2.43129 34.2533 2.10367C34.5448 1.93124 34.8792 1.81054 35.1364 1.58638C36.0366 0.819057 37.1255 0.474195 38.2316 0.189683C39.6205 -0.163801 41.0009 -0.0689638 42.1584 0.8363C43.3245 1.75019 44.4991 2.67269 45.5023 3.7935C46.2739 4.66428 46.8398 5.64713 47.2599 6.72483C47.8944 8.33706 48.3317 9.9924 48.6575 11.6909C48.889 12.8806 48.9918 14.079 49.0004 15.286C49.0004 16.1482 49.0347 17.0104 49.009 17.8725C48.9404 20.7521 48.6403 23.6059 48.023 26.4251C47.6029 28.3477 46.8827 30.1582 45.9824 31.8912C45.1593 33.4689 44.3362 35.0467 43.5645 36.6503C43.1273 37.5555 43.033 37.5642 43.8475 38.2453C44.0618 38.4263 44.2676 38.6419 44.4305 38.8746C45.3222 40.142 46.1967 41.418 46.917 42.8061C47.56 44.0476 47.9887 45.3494 48.1345 46.7375C48.4517 49.7982 48.2802 52.833 47.2856 55.7729C46.6254 57.73 45.8023 59.6181 44.6706 61.3769C42.9901 63.9893 41.061 66.4205 39.1918 68.8863C38.9175 69.2484 38.6431 69.6278 38.3087 69.9381C36.7054 71.4383 35.5136 73.2747 34.159 74.9731C33.1901 76.1802 32.1784 77.3527 31.1238 78.4821C30.0606 79.6115 29.0317 80.7582 28.1401 82.0342C27.7114 82.6377 27.3684 83.3188 26.7254 83.7499C26.5282 83.8792 26.5282 84.1292 26.4853 84.362C26.3824 84.9052 25.9794 85.1293 25.5079 84.9138C24.9848 84.681 24.4618 84.4482 23.9731 84.1465C21.7696 82.8101 19.6433 81.3617 17.6027 79.7753C16.6081 78.9994 15.7422 78.0855 14.9105 77.1285C13.7359 75.7836 12.6555 74.3869 11.6867 72.8867C11.1894 72.1194 10.6064 71.4038 10.0662 70.6624C7.98275 67.8172 6.37942 64.7221 5.29053 61.3597C5.09333 60.7562 4.90471 60.1613 4.85326 59.5233C4.81897 59.1267 4.69036 58.7387 4.59605 58.3508C4.03874 56.1781 3.73008 53.9624 3.48144 51.7294C3.35283 50.5741 3.37855 49.4361 3.54145 48.2894C3.78152 46.6427 4.12448 45.0046 4.61319 43.4096C4.91328 42.4267 5.3334 41.4697 5.7278 40.5214C5.91643 40.0644 5.925 39.6592 5.71066 39.2023C5.21337 38.1677 4.75895 37.1158 4.29596 36.064C4.11591 35.6416 3.96158 35.2105 3.80724 34.7794C3.49001 33.9172 3.17277 33.0551 2.86411 32.1929C2.55545 31.3308 2.22107 30.4945 2.10961 29.5634C1.99815 28.6581 1.69806 27.7787 1.42369 26.8993C0.874961 25.1405 0.60917 23.3213 0.291934 21.5108C-0.15391 18.9847 0.0604383 16.4672 0.171899 13.9411C0.171899 13.7686 0.189047 13.5876 0.231917 13.4238C0.574874 12.2081 0.926405 11.0011 1.29508 9.79411C1.44941 9.30268 1.69806 8.83711 1.83524 8.34568C2.16962 7.16453 2.81267 6.12994 3.50716 5.16433C5.48773 2.3537 8.29141 0.810436 11.7124 0.482816C12.4841 0.405222 13.29 0.663869 14.0702 0.827679C14.739 0.965624 15.3906 1.18978 16.0594 1.34497C17.3026 1.62948 18.4344 2.14678 19.4804 2.86237C21.0494 3.94006 22.3698 5.29365 23.6988 6.63861C23.9731 6.92312 24.1789 7.28523 24.4018 7.61285C24.7191 8.08704 25.0277 8.56984 25.405 9.16473L25.4135 9.15611ZM18.6916 49.0222C18.7002 49.1343 18.6916 49.2378 18.7259 49.3412C18.7516 49.4188 18.8116 49.4878 18.8545 49.5654C18.8631 49.4705 18.9059 49.3585 18.8802 49.2809C18.8459 49.186 18.743 49.1257 18.6744 49.0481C18.6744 48.8757 18.6744 48.7032 18.6573 48.5394C18.6487 48.4532 18.5716 48.367 18.5287 48.2894C18.503 48.3928 18.4429 48.5049 18.4687 48.5911C18.5201 48.7463 18.623 48.8843 18.7002 49.0308L18.6916 49.0222ZM13.8559 69.4467C13.7444 69.2139 13.6415 68.9725 13.5301 68.7397C13.5215 68.7225 13.4358 68.7053 13.41 68.7225C13.3843 68.7397 13.35 68.8173 13.3672 68.8346C13.5301 69.0329 13.7016 69.2225 13.873 69.4208C13.873 69.9123 14.1988 70.2571 14.4389 70.6279C14.4646 70.671 14.5332 70.7141 14.5761 70.7141C14.7304 70.6968 14.739 70.6192 14.6533 70.4813C14.4303 70.102 14.3532 69.6105 13.8473 69.4381L13.8559 69.4467ZM46.4711 8.6733C46.4711 8.56122 46.4711 8.44914 46.454 8.34568C46.454 8.29395 46.454 8.2336 46.4282 8.18187C46.4111 8.14739 46.3682 8.13014 46.3425 8.09566C46.3339 8.1905 46.2911 8.29395 46.3168 8.38017C46.3511 8.48363 46.4282 8.56122 46.4883 8.65606C46.5054 9.16473 46.5054 9.69065 46.7455 10.1562C46.8141 10.2942 46.7969 10.5614 47.0799 10.5528C47.1056 9.98378 47.0198 9.48373 46.8055 9.00954C46.7455 8.8716 46.5826 8.77676 46.4625 8.66468L46.4711 8.6733ZM15.2534 55.9367C15.2534 56.0488 15.2449 56.1609 15.2706 56.2643C15.2877 56.3419 15.3649 56.4109 15.4163 56.4799C15.4335 56.385 15.4764 56.273 15.4421 56.1954C15.4078 56.1005 15.3049 56.0402 15.2277 55.9626C15.142 54.678 14.559 53.5485 14.1303 52.3674C14.0531 52.1605 13.9073 51.9708 13.753 51.7984C13.6501 51.6777 13.4529 51.5052 13.3757 51.5397C13.1871 51.6087 13.2471 51.8329 13.3072 51.988C13.7444 53.0485 14.1817 54.1003 14.6361 55.1522C14.7733 55.4625 14.9019 55.7902 15.2449 55.9453L15.2534 55.9367ZM9.02877 64.9807C9.01162 64.8773 8.9859 64.7652 8.9859 64.6617C8.9859 64.4893 8.93445 64.4376 8.85729 64.5324C8.83157 64.5583 8.85729 64.6359 8.88301 64.6876C8.93445 64.7824 8.99447 64.8773 9.04592 64.9635C10.0662 68.119 11.781 70.8951 13.6673 73.5678C14.7304 75.068 16.0765 76.3267 17.3712 77.6286C17.4141 77.6717 17.4655 77.6975 17.517 77.7234C17.5684 77.7493 17.637 77.7838 17.6799 77.7665C17.817 77.7148 17.8428 77.6113 17.7485 77.482C16.6338 76.025 15.5278 74.5593 14.4132 73.1023C13.1614 71.4642 11.9525 69.7916 10.9408 67.981C10.4949 67.1792 10.0662 66.3688 9.62037 65.567C9.48319 65.317 9.346 65.0583 9.02877 64.9807ZM33.4559 73.5937C32.9929 73.5937 32.7614 73.9558 32.487 74.2317C30.6951 75.9991 28.9203 77.7838 27.1283 79.5512C26.4424 80.2323 25.7908 80.9651 24.8991 81.4134C24.8562 81.4393 24.8219 81.4997 24.7876 81.5428C24.7019 81.6462 24.7105 81.7583 24.8134 81.8531C24.9848 81.9997 25.1392 82.1721 25.3364 82.2756C25.8765 82.5687 26.1766 82.4911 26.511 82.0428C27.0169 81.3531 27.497 80.6375 28.0543 79.9909C29.4862 78.3528 30.9523 76.7406 32.4013 75.1283C32.8214 74.6628 33.293 74.2403 33.4216 73.5764C33.6788 73.473 33.8246 73.2488 33.9446 73.016C33.9532 72.9902 33.9275 72.9212 33.8932 72.904C33.8589 72.8867 33.7988 72.8867 33.7645 72.904C33.5416 73.0764 33.4473 73.3178 33.4473 73.5937H33.4559ZM35.4879 70.7831C35.788 70.7572 35.9852 70.5934 36.191 70.3606C38.7203 67.4638 41.0867 64.4376 43.2302 61.239C44.4562 59.4026 45.3308 57.4283 46.0767 55.3677C46.2739 54.8245 46.4711 54.2814 46.5997 53.721C47.1999 51.0483 47.1913 48.3584 46.7112 45.6684C46.634 45.2201 46.4197 44.8063 46.2653 44.3752C46.2482 44.3321 46.171 44.3062 46.1196 44.2976C46.0853 44.2976 46.0167 44.358 46.0167 44.3838C46.0681 45.1253 46.1539 45.8667 46.1882 46.5996C46.4025 50.5914 45.6909 54.3848 43.7703 57.9111C42.9472 59.4198 42.0984 60.92 41.1467 62.3598C39.7149 64.5152 38.3859 66.7223 36.7654 68.7484C36.2767 69.3691 35.7365 69.9899 35.5136 70.7917C35.1107 70.9727 34.862 71.2831 34.6134 71.8694C35.1535 71.5245 35.4279 71.2314 35.4879 70.7658V70.7831ZM47.4314 20.959C47.1827 18.8726 46.9684 16.8121 46.6855 14.7601C46.5483 13.7342 46.3254 12.7168 46.0681 11.7167C45.648 10.1045 45.2107 8.50087 44.6963 6.9145C44.3791 5.94027 43.9504 4.98327 43.4874 4.06077C42.8701 2.82788 41.7983 2.19851 40.4522 2.11229C38.5917 1.99159 36.7911 2.31921 35.1192 3.12964C33.6702 3.82798 32.3756 4.7936 31.2438 5.94889C30.4036 6.81104 29.5719 7.69044 28.7917 8.60433C27.5913 10.001 26.511 11.4839 25.928 13.2686C25.8765 13.4238 25.7908 13.6135 25.6622 13.6997C25.4821 13.8204 25.2506 13.9152 25.0363 13.9066C24.8134 13.898 24.6162 13.7342 24.5476 13.4841C24.5219 13.3721 24.5047 13.26 24.4876 13.1479C24.1103 10.7683 23.1157 8.68192 21.5553 6.85415C20.9551 6.14718 20.2349 5.57816 19.5061 5.02638C18.4944 4.26768 17.3626 3.73315 16.0765 3.56934C14.739 3.3969 13.4615 3.44001 12.244 4.11249C11.6953 4.41425 11.1122 4.66427 10.5635 4.97465C10.1691 5.19881 9.76612 5.44884 9.44032 5.76784C8.71153 6.49205 7.93988 7.17315 7.374 8.06117C6.72238 9.06989 5.95073 9.9924 5.25624 10.9666C4.67321 11.7684 4.1845 12.5875 3.85869 13.5186C3.63577 14.1739 3.42999 14.8291 3.18992 15.4757C1.72378 19.3813 1.7495 23.3558 2.7355 27.3476C3.12133 28.9081 3.67006 30.4255 4.14163 31.9601C4.78467 34.0466 5.62492 36.064 6.57662 38.0297C6.86814 38.6246 7.38257 38.8315 8.00847 38.6332C8.27426 38.547 8.54863 38.4263 8.78012 38.2711C9.85186 37.5642 11.0522 37.2365 12.2697 36.8831C14.1303 36.3399 15.9308 36.6072 17.637 37.2883C19.2918 37.9521 20.7065 39.0298 21.7953 40.5127C22.2669 41.1594 22.8585 41.7111 23.4158 42.2888C23.5016 42.375 23.7673 42.3922 23.8874 42.3233C24.136 42.1939 24.3418 41.9784 24.5647 41.806C25.2849 41.237 25.9623 40.6076 26.7254 40.1161C27.7885 39.435 28.8517 38.7798 29.7005 37.8142C30.2149 37.2279 30.8923 36.9434 31.6897 36.9607C32.0841 36.9607 32.5213 37.0296 32.8814 36.9089C34.0818 36.5123 35.325 36.3399 36.5511 36.0381C37.3999 35.4433 38.2744 35.676 39.1575 35.9519C39.9206 36.1933 40.6837 36.4175 41.4554 36.6417C41.764 36.7365 42.0041 36.633 42.1756 36.3313C43.153 34.5725 43.9932 32.7447 44.7306 30.8738C45.8109 28.1408 46.7198 25.3647 47.2513 22.4678C47.3456 21.9591 47.3714 21.4418 47.4228 20.959H47.4314ZM1.39797 17.7604C1.61232 17.1742 1.87811 16.6051 2.03244 16.0103C2.43542 14.4498 3.10418 12.9841 3.68721 11.4926C3.85869 11.0529 4.08161 10.6821 4.42457 10.3545C5.29911 9.51822 5.98502 8.54398 6.67094 7.54388C8.21424 5.30227 10.3492 3.81936 12.9042 2.93134C13.17 2.8365 13.4615 2.81064 13.7359 2.74167C14.4732 2.56924 15.2106 2.64683 15.9565 2.67269C16.1194 2.67269 16.3595 2.81926 16.4709 2.45715C16.0594 2.3537 15.6821 2.25886 15.2963 2.1554C14.7476 2.00883 14.1817 1.90537 13.6501 1.69846C12.4155 1.23289 11.1894 1.31049 9.94618 1.61224C8.1628 2.04332 6.75668 3.10377 5.41057 4.2763C4.66464 4.92292 4.12448 5.71611 3.67006 6.59551C2.68406 8.49225 2.06674 10.5183 1.56945 12.5875C1.16648 14.2773 1.11503 15.993 1.40654 17.7432L1.39797 17.7604ZM36.9112 53.0916C36.9112 53.3847 36.9112 53.8934 36.9112 54.4021C36.9112 54.4538 36.9455 54.5486 36.9798 54.5486C37.0827 54.5573 37.237 54.5831 37.2884 54.5314C37.5285 54.29 37.7343 54.0227 37.9743 53.7727C38.5917 53.1175 38.8575 52.3415 38.9003 51.4449C38.9346 50.6517 39.0804 49.8585 39.1318 49.0567C39.2004 47.9187 39.2347 46.7806 39.2776 45.6339C39.2776 45.5477 39.2004 45.3925 39.1404 45.3753C39.0547 45.3581 38.9089 45.427 38.866 45.5046C37.7343 47.8238 36.7568 50.1948 36.9112 53.083V53.0916ZM40.4265 45.8322C40.3493 47.6428 40.2893 49.4188 40.0407 51.1776C40.0149 51.3328 40.0835 51.5052 40.1264 51.669C40.1264 51.7035 40.2036 51.7294 40.255 51.738C40.3065 51.738 40.375 51.738 40.4093 51.7122C40.718 51.419 40.8037 51.0138 40.8895 50.6345C41.2582 48.9619 41.6526 47.2893 41.9184 45.5995C42.0727 44.6511 42.0212 43.6596 42.0298 42.694C42.0298 42.4181 41.9441 42.1336 41.8841 41.8577C41.824 41.5904 41.4039 41.487 41.1724 41.6508C40.6666 42.0215 40.4522 42.5129 40.4865 43.1337C40.538 44.0476 40.6065 44.9615 40.4265 45.8236V45.8322ZM36.2167 61.2304C36.2681 61.7218 36.3282 62.2908 36.4053 62.8598C36.4053 62.8943 36.4911 62.9288 36.5425 62.9374C36.5854 62.9461 36.6711 62.9374 36.6797 62.9116C36.8083 62.6615 36.9798 62.4201 37.0484 62.1529C37.5885 60.2216 37.9572 58.2387 38.2659 56.2557C38.3259 55.8591 38.3687 55.4625 38.4116 55.0659C38.4116 55.0228 38.3602 54.9366 38.3259 54.928C38.2316 54.9108 38.0772 54.8849 38.0344 54.9366C37.6314 55.4194 37.2198 55.8936 36.8597 56.4109C36.7054 56.6351 36.6197 56.9368 36.5939 57.2127C36.4568 58.5232 36.3453 59.8337 36.2167 61.2304ZM17.8599 70.3434C17.8685 70.2916 17.9114 70.2313 17.8942 70.1882C17.4055 68.7225 16.3766 67.4896 16.0165 65.9722C15.9908 65.8688 15.8879 65.7825 15.8107 65.6963C15.4335 65.3084 15.2877 64.8256 15.1591 64.3169C15.0477 63.8772 14.8676 63.4375 14.6447 63.0409C13.7444 61.4373 13.0499 59.7388 12.4326 58.0145C12.2954 57.6352 12.1154 57.2731 11.9525 56.911C11.9268 56.8592 11.8925 56.8161 11.8496 56.773C11.8067 56.7385 11.7296 56.6782 11.7124 56.6868C11.6438 56.7471 11.5324 56.8334 11.5409 56.8937C11.6695 57.8766 12.2011 58.7215 12.5184 59.644C13.29 61.8684 14.2074 64.041 15.1848 66.1878C15.845 67.6534 16.5653 69.0932 17.577 70.352C17.6027 70.3865 17.6799 70.4037 17.7313 70.4037C17.7742 70.4037 17.817 70.3606 17.8685 70.3347L17.8599 70.3434ZM24.2218 63.7306C24.2132 64.1444 24.2303 64.4893 24.1875 64.8169C24.0417 66.0067 23.9646 67.2223 23.6816 68.3776C23.4758 69.2484 23.4244 70.0588 23.6216 70.9124C23.7416 71.4728 23.8359 72.0332 23.9303 72.6022C23.956 72.7488 24.0331 72.8177 24.1618 72.7833C24.2132 72.7746 24.2732 72.7488 24.2989 72.7057C24.4618 72.4039 24.7448 72.0935 24.7362 71.8004C24.6933 70.8003 25.3364 69.8002 24.7191 68.7915C24.599 68.5932 24.7191 68.2311 24.7534 67.9552C24.8734 67.1016 24.8562 66.2395 24.7705 65.3859C24.7191 64.9376 24.6076 64.4893 24.5047 64.041C24.4876 63.9548 24.3675 63.8858 24.2303 63.7306H24.2218ZM13.0842 54.8935C13.0842 54.8935 12.9813 54.9539 12.9813 54.9711C13.0071 55.1866 13.0071 55.428 13.0928 55.6263C14.1303 58.118 15.1677 60.601 16.2223 63.084C16.5824 63.9289 16.9682 64.7566 17.3541 65.5929C17.4741 65.8515 17.5255 66.1619 17.8342 66.2654C17.9885 66.3171 17.9885 65.8343 17.817 65.3084C17.5941 64.6617 17.4398 63.972 17.1226 63.3685C16.4281 62.0494 16.1108 60.5579 15.2792 59.3078C14.8848 57.7214 13.9073 56.4195 13.23 54.9711C13.2128 54.928 13.1357 54.9108 13.0928 54.8763L13.0842 54.8935ZM43.2473 55.9109C43.8732 55.1177 44.0961 54.1779 44.3533 53.264C45.0135 50.9276 45.1336 48.548 44.9878 46.1426C44.9707 45.8064 44.8935 45.4701 44.5591 45.2115C44.5334 45.6857 44.4734 46.134 44.482 46.5823C44.4991 47.9618 44.3791 49.324 44.1219 50.6689C43.8475 52.126 43.5217 53.5744 43.2216 55.0315C43.1616 55.3073 43.0158 55.5746 43.2473 55.9195V55.9109ZM29.006 49.4447C29.0832 50.0309 29.006 50.9535 29.2804 51.8415C29.2975 51.8846 29.349 51.9363 29.4004 51.9449C29.4519 51.9536 29.529 51.9449 29.5633 51.9191C29.9063 51.6001 30.1464 51.2121 30.2407 50.7552C30.3093 50.4189 30.3007 50.0654 30.4036 49.7378C30.6522 48.9791 30.4636 48.2721 30.2149 47.5566C30.0778 47.1686 29.7777 46.9617 29.4519 47.022C29.0918 47.0824 28.8688 47.3669 28.886 47.7549C28.9031 48.2118 28.946 48.6687 29.006 49.4447ZM31.7583 65.9636H31.6811C31.6811 66.4809 31.6811 66.9982 31.6811 67.5155C31.6811 67.7396 31.7154 67.9724 31.7497 68.1966C31.7668 68.3431 31.8611 68.4121 31.9812 68.369C32.0841 68.3345 32.2212 68.2742 32.247 68.1966C32.5985 67.1879 33.1215 63.4633 33.0529 62.4288C33.0529 62.3339 32.9672 62.2046 32.89 62.1787C32.8043 62.1529 32.6499 62.1787 32.5813 62.2563C32.0583 62.8167 31.7068 63.4461 31.7411 64.2479C31.7583 64.8169 31.7411 65.3946 31.7411 65.9722L31.7583 65.9636ZM20.535 52.0743C20.4921 52.1777 20.4321 52.2639 20.4321 52.3502C20.4321 53.4278 20.4578 54.5142 20.4664 55.5919C20.4664 56.1523 20.6979 56.5833 21.1609 56.8851C21.4438 57.0661 21.6839 57.342 22.0526 57.3334C22.1383 57.3334 22.2841 57.23 22.2926 57.1524C22.3184 56.9886 22.3012 56.8161 22.2755 56.6437C21.9754 55.0228 21.3752 53.5054 20.5436 52.0656L20.535 52.0743ZM19.1117 63.1357C19.1889 63.0236 19.2575 62.9633 19.2489 62.9288C18.9574 61.2907 18.623 59.6699 17.8685 58.1697C17.5341 57.5058 17.2426 56.8247 17.0883 56.0919C17.0282 55.816 16.9168 55.5488 16.7967 55.2815C16.711 55.0832 16.6081 54.8676 16.3423 54.8332C16.188 54.8159 16.1366 55.0659 16.2309 55.4022C16.4366 56.1178 16.6338 56.8334 16.8482 57.549C17.4312 59.4629 18.2715 61.2735 19.1031 63.1357H19.1117ZM25.1135 51.9363C25.1135 50.7896 25.1135 49.6602 25.1135 48.5308C25.1135 48.229 25.002 47.9704 24.7876 47.7807C24.4447 47.479 24.0932 47.2031 23.7331 46.9358C23.6645 46.8841 23.5016 46.8668 23.433 46.9099C23.3644 46.953 23.3044 47.1169 23.3301 47.2031C23.8531 48.7636 24.3932 50.3155 24.9334 51.8673C24.942 51.9018 25.0363 51.9104 25.1135 51.9449V51.9363ZM32.0412 47.6686C32.0326 47.9187 32.0069 48.0394 32.024 48.1514C32.0412 48.2463 32.1184 48.3325 32.1698 48.4187C32.2555 48.3584 32.3756 48.3153 32.4184 48.229C32.83 47.2893 33.233 46.3495 33.6359 45.4098C33.7474 45.1511 33.8503 44.8839 33.9446 44.6166C34.1075 44.1769 34.1247 43.7286 34.0132 43.2716C33.9789 43.1337 33.9017 43.0733 33.7645 43.0906C33.7131 43.0992 33.6531 43.1165 33.6188 43.1509C33.5416 43.2285 33.4559 43.3148 33.413 43.4182C32.8386 44.8494 32.2041 46.2547 32.0412 47.6773V47.6686ZM22.3184 60.351C22.3612 59.4112 22.2498 59.2388 21.5638 58.9284C21.461 58.8853 21.3495 58.8508 21.2466 58.8077C20.9808 58.7042 20.7579 58.8336 20.7836 59.0922C20.8865 60.2303 21.1266 61.3424 21.4953 62.4201C21.521 62.5064 21.6496 62.5667 21.7439 62.6012C21.8725 62.6443 21.9668 62.5753 21.9925 62.4374C22.1126 61.6528 22.2326 60.8683 22.3184 60.351ZM9.20024 60.9976C10.1434 62.9547 10.8207 65.0152 12.3555 66.8947C11.6953 64.5152 10.9065 62.4977 9.20024 60.9976ZM21.2295 50.6776C21.058 48.9964 20.655 47.4014 20.0977 45.8495C20.0205 45.6426 19.9434 45.4184 19.6776 45.3667C19.5147 45.3322 19.4547 45.6684 19.549 46.1081C19.6176 46.4444 19.7205 46.772 19.7633 47.1082C19.9005 48.4532 20.5264 49.5826 21.238 50.6776H21.2295ZM33.876 51.7811C33.6788 51.988 33.5073 52.2122 33.293 52.3933C32.7014 52.9106 32.4527 53.5658 32.4184 54.3504C32.3756 55.1435 32.247 55.9281 32.1784 56.7213C32.1612 56.9627 32.0155 57.2386 32.2984 57.4714C32.9072 55.6263 33.6188 53.8331 34.0132 51.9449C34.0132 51.9191 33.9532 51.8673 33.876 51.7811ZM28.7574 75.9819C29.6062 75.3008 30.3693 74.4731 30.9009 73.4557C30.9952 73.2747 30.9523 73.016 30.9266 72.8005C30.9009 72.6281 30.7722 72.4815 30.5836 72.4815C30.4979 72.4815 30.3864 72.5677 30.3178 72.6453C30.2407 72.7315 30.1806 72.835 30.1549 72.9384C30.0263 73.5764 29.7691 74.0765 29.1261 74.3955C28.5859 74.6628 28.4316 75.2577 28.4144 75.8525C28.4144 75.8956 28.4573 75.9732 28.5087 75.9905C28.5516 76.0163 28.6202 75.9905 28.7488 75.9732L28.7574 75.9819ZM14.1731 38.9436C14.1731 38.9436 14.1731 38.9091 14.1731 38.8919C14.9019 38.8919 15.6307 38.8919 16.3595 38.8919C16.3938 38.8919 16.4624 38.8229 16.4624 38.8057C16.4281 38.7022 16.4023 38.5643 16.3252 38.5212C15.5107 38.0815 14.6447 37.909 13.7187 38.0211C13.5387 38.047 13.4186 38.1504 13.3843 38.3315C13.3415 38.5556 13.5044 38.8574 13.6673 38.8833C13.8302 38.9091 14.0016 38.9178 14.1646 38.935L14.1731 38.9436ZM37.6485 39.4609C38.0515 39.6075 38.3945 39.3661 38.746 39.2367C38.8832 39.185 39.0032 39.0126 39.0547 38.866C39.1918 38.4867 39.1833 38.0901 39.0547 37.7021C38.9261 37.3228 38.5231 37.1072 38.103 37.2365C37.9486 37.2883 37.7686 37.4435 37.8886 37.5987C38.223 38.0384 38.163 38.4263 37.8543 38.8402C37.7257 39.0126 37.5799 39.1936 37.6485 39.4609ZM23.7502 78.0769C23.5959 78.0941 23.4244 78.1028 23.2615 78.1286C23.0214 78.1631 22.9185 78.4218 23.0814 78.6373C23.3472 78.9994 23.6302 79.3615 23.9303 79.6978C24.0331 79.8185 24.2132 79.8874 24.3675 79.9305C24.4533 79.9564 24.6162 79.9047 24.659 79.8357C24.9506 79.4046 24.8905 78.5511 24.5647 78.2493C24.4876 78.1717 24.3847 78.0941 24.2732 78.0769C24.1103 78.051 23.9388 78.0769 23.7502 78.0769ZM30.6351 45.6512C30.6351 45.246 30.6522 44.9615 30.6351 44.6856C30.6093 44.358 30.3693 44.1769 30.1035 44.0734C29.9749 44.0217 29.7434 44.0562 29.6405 44.151C29.2375 44.5131 29.1175 45.0304 28.946 45.5132C28.886 45.6684 28.826 45.8409 29.0317 45.9702C29.5205 45.8754 30.0177 45.7805 30.6351 45.6598V45.6512ZM29.409 61.5235C29.4519 61.5407 29.5033 61.5494 29.5462 61.5666C29.6662 60.2044 29.7777 58.8422 29.8977 57.48C29.8977 57.4196 29.8977 57.3679 29.8977 57.3075C29.8977 57.1006 29.7262 56.8937 29.6233 56.9972C29.5462 57.0748 29.4261 57.161 29.4261 57.2386C29.4176 58.6611 29.4176 60.0923 29.4176 61.5149L29.409 61.5235ZM22.9443 67.1103C23.0043 67.0154 23.09 66.9465 23.09 66.8689C23.0814 65.9722 23.0557 65.0756 23.0386 64.1789C23.0386 64.1358 22.9871 64.0841 22.9528 64.0669C22.91 64.0496 22.8242 64.041 22.7985 64.0669C22.4813 64.3169 22.164 64.6014 22.2755 65.0411C22.4555 65.7394 22.507 66.4809 22.9528 67.1103H22.9443ZM11.7124 50.6603C11.6524 49.7809 11.5152 48.9877 11.0608 48.3066C10.8464 47.9876 10.8464 47.5135 10.4177 47.3496C10.2548 47.2893 10.2806 47.8842 10.5978 48.5739C10.9236 49.2895 11.3352 49.9706 11.7124 50.6603ZM34.4162 47.8152C34.4162 47.7549 34.4162 47.7031 34.399 47.6428C34.3819 47.591 34.3561 47.4962 34.339 47.4962C34.2447 47.4962 34.1161 47.4962 34.0646 47.5479C33.5502 48.1256 33.3959 48.867 33.233 49.5912C33.233 49.6257 33.2844 49.6947 33.3273 49.7206C33.3616 49.7378 33.4387 49.7378 33.473 49.7206C34.0989 49.2464 34.5019 48.6515 34.4247 47.8152H34.4162ZM26.6739 47.8238C26.8111 47.7549 26.9654 47.729 26.9911 47.66C27.2226 47.0134 27.2312 46.3495 27.1198 45.6857C27.1198 45.634 27.0512 45.5477 27.034 45.5564C26.9311 45.5822 26.7854 45.6081 26.7511 45.6771C26.4081 46.3754 26.5967 47.091 26.6739 47.8324V47.8238ZM33.2758 58.2818C32.7785 59.2388 32.5642 60.0492 32.2641 60.8251C32.2127 60.9459 32.2641 61.0407 32.3927 61.0666C32.4356 61.0666 32.5128 61.0407 32.5385 61.0062C33.0615 60.2734 33.5845 59.5405 33.2758 58.2904V58.2818ZM13.1357 40.5731C12.7841 40.6334 12.5698 40.8835 12.3812 41.1507C12.244 41.349 12.2954 41.5818 12.5269 41.7025C12.7241 41.7974 12.9556 41.8922 13.1185 41.6767C13.3243 41.4094 13.4358 41.0904 13.3672 40.7541C13.35 40.6852 13.2128 40.6334 13.1271 40.5731H13.1357ZM19.9091 73.9903C19.9777 73.4126 19.7633 72.9816 19.2918 72.6884C19.206 72.6367 19.086 72.6281 18.9831 72.6281C18.8631 72.6281 18.7516 72.9298 18.8373 73.0505C19.0946 73.4213 19.3518 73.7834 19.6176 74.1455C19.6433 74.1799 19.7462 74.2231 19.7633 74.2058C19.8319 74.1455 19.8748 74.0592 19.9177 73.9903H19.9091ZM37.0312 42.0646C37.0741 42.0646 37.1341 42.0819 37.177 42.0646C37.6571 41.7974 38.1544 41.5387 38.4116 41.0042C38.4802 40.8576 38.4459 40.5903 38.3259 40.5645C38.223 40.5472 38.103 40.5127 38.0172 40.5645C37.5114 40.8317 37.1513 41.237 36.9369 41.7715C36.9198 41.8146 36.9283 41.8836 36.9369 41.9353C36.9541 41.987 36.9969 42.0215 37.0312 42.0732V42.0646ZM28.7745 42.7975C29.2804 42.5819 29.7348 42.3922 30.1806 42.2026C30.2321 42.1767 30.3007 42.1595 30.3264 42.1164C30.3778 42.0301 30.4464 41.9267 30.4293 41.8491C30.4036 41.7542 30.3178 41.6594 30.2235 41.6077C30.1292 41.5646 29.992 41.5301 29.8977 41.5732C29.3918 41.7974 29.3918 41.806 28.7745 42.8061V42.7975ZM14.4646 46.9358C14.4561 46.453 14.5161 46.0995 14.2503 45.8236C14.216 45.7891 14.1645 45.7547 14.1131 45.7374C14.0788 45.7374 14.0016 45.7547 13.9931 45.7719C13.8645 46.3323 13.8645 46.8841 14.1903 47.3927C14.2074 47.4272 14.336 47.4359 14.336 47.4272C14.396 47.2117 14.4475 47.0048 14.4646 46.9272V46.9358ZM31.9812 42.4698C32.0326 42.4698 32.0926 42.4957 32.1355 42.4785C32.5985 42.2371 32.8643 41.8232 33.0529 41.349C33.0615 41.3232 33.0015 41.2456 32.95 41.2197C32.9072 41.1938 32.8386 41.1938 32.7871 41.2197C32.2898 41.4352 32.0412 41.8577 31.8954 42.3491C31.8869 42.3836 31.9469 42.4353 31.9812 42.4785V42.4698ZM40.0492 1.18116C39.3976 0.965624 38.7546 1.04322 38.1115 1.23289C38.7631 1.37946 39.4062 1.31049 40.0492 1.18116ZM40.778 37.8573C40.6837 37.8918 40.5122 37.9177 40.5037 37.9694C40.4522 38.1849 40.4265 38.4091 40.4351 38.6246C40.4351 38.6936 40.5722 38.7626 40.658 38.8143C40.6837 38.8315 40.7694 38.7971 40.8037 38.7539C40.9066 38.6246 41.0095 38.4867 41.0867 38.3401C41.1896 38.1332 41.0267 37.8918 40.778 37.8487V37.8573ZM24.7534 43.6165C24.8048 43.6165 24.8734 43.651 24.9077 43.6337C25.2935 43.3579 25.4736 42.9613 25.5679 42.5043C25.5679 42.4612 25.5336 42.3922 25.4907 42.3664C25.4564 42.3405 25.3707 42.3491 25.345 42.3664C25.062 42.7026 24.6933 42.9958 24.659 43.4872C24.659 43.5303 24.7191 43.5734 24.7534 43.6165ZM20.5178 41.3232C20.4664 41.3232 20.4064 41.3232 20.3721 41.349C20.3378 41.3749 20.3035 41.4525 20.3121 41.4784C20.5436 41.8663 20.7493 42.2629 21.1523 42.5043C21.2809 42.5819 21.3152 42.5474 21.2809 42.3922C21.178 41.9181 20.8694 41.6077 20.5093 41.3232H20.5178ZM29.2804 69.0501C29.2718 68.8691 29.2804 68.757 29.2547 68.6449C29.2547 68.5932 29.2032 68.5587 29.1775 68.507C29.1003 68.5759 28.9889 68.619 28.9374 68.7053C28.7745 68.9725 28.8088 69.2484 28.9974 69.4898C29.0317 69.5329 29.0832 69.5674 29.1261 69.576C29.1518 69.576 29.2118 69.5243 29.2204 69.4898C29.2461 69.326 29.2547 69.1536 29.2718 69.0501H29.2804ZM23.3558 76.4647C23.2529 76.0681 23.09 75.7146 22.7299 75.4904C22.687 75.4646 22.6099 75.4559 22.567 75.4646C22.5156 75.4818 22.4384 75.5422 22.447 75.5766C22.5241 76.0508 22.7899 76.3957 23.1757 76.663C23.2015 76.6802 23.2786 76.6457 23.3129 76.6112C23.3472 76.5767 23.3472 76.5164 23.3644 76.456L23.3558 76.4647ZM17.5255 43.651C17.6456 43.651 17.8428 43.4441 17.8256 43.2975C17.8085 43.1165 17.7142 42.9958 17.5427 42.9354C17.3883 42.8837 17.1997 43.013 17.1826 43.1682C17.1654 43.3923 17.3369 43.6424 17.5255 43.651ZM20.7579 71.3779C20.6722 71.4297 20.5436 71.4642 20.5178 71.5418C20.4492 71.7659 20.4664 71.9901 20.6636 72.1539C20.7065 72.1884 20.7665 72.2142 20.8179 72.2056C20.8608 72.2056 20.9208 72.1539 20.9294 72.1108C21.0323 71.7832 20.9551 71.49 20.7493 71.3693L20.7579 71.3779ZM12.7841 44.4959C12.7584 44.3924 12.7413 44.2804 12.707 44.1769C12.6898 44.1338 12.6212 44.0734 12.5955 44.0821C12.4926 44.1079 12.3555 44.1338 12.304 44.2114C12.124 44.4873 12.1754 44.7114 12.4583 44.9184C12.5784 45.0046 12.6813 44.9701 12.7241 44.8321C12.7584 44.7287 12.7584 44.6166 12.7756 44.5045L12.7841 44.4959ZM28.1229 59.2905C28.0029 59.7302 27.9943 60.144 28.0972 60.5924C28.2944 60.144 28.2172 59.7302 28.1229 59.2905ZM16.5224 40.53C16.4709 40.4351 16.4452 40.2972 16.368 40.2627C16.1966 40.1851 16.0594 40.2972 15.9651 40.4524C15.8793 40.5903 15.8279 40.7455 15.9394 40.9007C15.9651 40.9352 16.0337 40.9611 16.068 40.9524C16.2909 40.8921 16.4366 40.7541 16.5138 40.5386L16.5224 40.53ZM25.4478 74.8869C25.6536 74.8697 25.7908 74.7231 25.7136 74.5765C25.6708 74.4989 25.5422 74.3955 25.4907 74.4127C25.3621 74.4645 25.2163 74.5507 25.1392 74.6628C25.062 74.7662 25.2506 74.9042 25.4478 74.8869ZM35.7794 46.0995C35.7451 45.9788 35.8566 45.7891 35.6422 45.7288C35.6165 45.8322 35.5651 45.9443 35.5651 46.0478C35.5651 46.1857 35.4965 46.3582 35.7023 46.4271C35.728 46.3237 35.7537 46.2116 35.7794 46.0995ZM12.0468 43.0044C12.0125 42.8578 11.7896 42.7112 11.6781 42.7975C11.6009 42.8578 11.5409 42.9785 11.5324 43.0733C11.5152 43.2544 11.6181 43.401 11.8067 43.3665C11.9782 43.3406 12.0554 43.194 12.0382 43.0044H12.0468ZM15.5364 49.1257C15.5364 49.074 15.5278 49.0222 15.5107 48.9705C15.4935 48.9188 15.4678 48.8757 15.4506 48.8326C15.4078 48.8929 15.3306 48.9446 15.322 49.005C15.322 49.0998 15.3392 49.2291 15.3992 49.2895C15.4592 49.3498 15.5364 49.2636 15.5364 49.1257ZM14.2246 42.7716C14.156 42.8578 14.0445 42.9268 14.0359 43.0216C14.0188 43.1768 14.3103 43.3665 14.3789 43.2716C14.4389 43.194 14.4732 43.0561 14.4475 42.9613C14.4303 42.8837 14.3103 42.8406 14.2331 42.7802L14.2246 42.7716ZM27.7714 53.6692C27.7714 53.6692 27.8314 53.652 27.8657 53.6434C27.8228 53.5572 28.0029 53.3761 27.7542 53.3761C27.7542 53.471 27.7628 53.5658 27.7714 53.6692ZM34.4162 65.1704C34.399 65.1273 34.3733 65.0756 34.3562 65.0325C34.3219 65.0497 34.2533 65.0756 34.2533 65.0842C34.2704 65.2135 34.3047 65.3428 34.3304 65.4635C34.3476 65.4118 34.3733 65.3687 34.3904 65.317C34.4076 65.2653 34.4076 65.2135 34.4162 65.1618V65.1704ZM39.8263 54.0572C39.8263 54.0572 39.7492 54.0917 39.7492 54.1176C39.732 54.2124 39.7234 54.3159 39.7234 54.4193C39.7234 54.4366 39.7749 54.4624 39.8092 54.4797C39.8349 54.3848 39.8606 54.29 39.8692 54.1952C39.8692 54.1521 39.8435 54.1003 39.8263 54.0486V54.0572ZM17.0625 48.4791C17.0625 48.6256 17.0797 48.7722 17.0883 48.9188C17.1226 48.8843 17.174 48.8498 17.174 48.8067C17.174 48.7032 17.174 48.5998 17.1569 48.5049C17.1569 48.4963 17.0968 48.4877 17.0625 48.4877V48.4791ZM25.7822 72.197C25.7736 72.1453 25.7736 72.059 25.7394 72.0418C25.6365 71.9987 25.585 72.0763 25.6107 72.2315C25.6107 72.2832 25.6193 72.3694 25.6536 72.3867C25.7565 72.4298 25.8079 72.3522 25.7822 72.197ZM12.0982 46.5996C12.0982 46.5996 11.9953 46.6082 11.9782 46.6341C11.9525 46.6685 11.9353 46.7548 11.9525 46.772C12.0639 46.8755 12.0725 47.2376 12.3383 46.953C12.3555 46.9272 12.184 46.7203 12.1068 46.5996H12.0982ZM9.86044 51.2293C9.86044 51.2811 9.86044 51.3328 9.86044 51.3759C9.86044 51.3845 9.92903 51.3845 9.96333 51.3932C9.96333 51.3414 9.9719 51.2897 9.96333 51.2466C9.96333 51.238 9.89473 51.238 9.86044 51.2293ZM17.8942 3.00031C17.8942 3.00031 17.8942 2.9141 17.8942 2.90548C17.8428 2.90548 17.7913 2.90548 17.7399 2.90548C17.7399 2.93996 17.7399 2.99169 17.7399 3.00031C17.7913 3.00031 17.8428 3.00031 17.8942 3.00031ZM47.4057 11.9581C47.3885 11.915 47.3714 11.8633 47.3542 11.8202C47.3285 11.8633 47.2771 11.8978 47.2685 11.9409C47.2685 11.984 47.3028 12.0357 47.3199 12.0788C47.3456 12.0443 47.3799 12.0012 47.4057 11.9667V11.9581ZM10.975 54.9711C10.9922 54.9194 11.0351 54.8676 11.0265 54.8245C11.0093 54.6521 10.9408 54.6176 10.8636 54.7469C10.8379 54.7901 10.8464 54.859 10.8636 54.9108C10.8722 54.9366 10.9322 54.9539 10.9665 54.9797L10.975 54.9711ZM29.3061 72.0159C29.2547 71.9383 29.2032 71.8607 29.1518 71.7918C29.1175 71.8263 29.0489 71.8607 29.0489 71.8866C29.0489 71.9814 29.0832 72.0677 29.1089 72.1625C29.1689 72.1108 29.2375 72.0677 29.2975 72.0159H29.3061Z" fill="#BC3333"/>
</g>
<defs>
<clipPath id="clip0_124_75">
<rect width="49" height="85" fill="white"/>
</clipPath>
</defs>
</svg>
